<svg width="400" height="300" viewBox="0 0 800 600" fill="none" xmlns="http://www.w3.org/2000/svg" data-reactroot="">
<path d="M107.598 59.2517C112.362 59.2517 116.224 55.3898 116.224 50.6259C116.224 45.8619 112.362 42 107.598 42C102.834 42 98.9723 45.8619 98.9723 50.6259C98.9723 55.3898 102.834 59.2517 107.598 59.2517Z" fill="#C4B6FF"></path>
<path d="M563.376 125.008L563.229 108.223L558.774 108.262L558.921 125.047L563.376 125.008Z" fill="#C4B6FF"></path>
<path d="M572.656 124.927L572.368 92.0898L567.913 92.1289L568.201 124.966L572.656 124.927Z" fill="#C4B6FF"></path>
<path d="M686.254 157.989L703.039 157.842L703 153.386L686.215 153.533L686.254 157.989Z" fill="#7D55FF"></path>
<path d="M686.335 167.269L719.172 166.981L719.133 162.526L686.296 162.813L686.335 167.269Z" fill="#7D55FF"></path>
<path d="M10 515.633C10 429.665 10 387.175 10 301.207C19.5323 260.471 31.2178 224.773 43.5227 225.088C60.2024 225.514 69.0335 291.885 77.8538 291.013C89.7151 289.839 78.27 77.2275 103.459 76.3273C132.811 75.2783 108.243 107.476 149.253 115.825C172.126 120.481 183.554 93.5914 200.003 100.488C228.576 112.467 233.101 280.938 249.261 284.757C263.357 288.089 271.592 283.254 292.05 285.575C315.267 288.21 316.361 365.928 329.367 366.452C349.866 367.279 351.943 310.96 412.209 351.5C428.843 362.689 454.357 371.475 468.184 363.054C482.433 354.376 520.411 388.966 537.592 390.24C551.116 391.242 563.647 308.763 583.118 309.363C600.162 309.888 609.74 373.674 619.689 372.569C628.496 371.591 677.334 369.816 695.814 366.452C721.003 361.868 711.445 326.483 735.37 322.937C747.158 321.19 755.923 347.135 767.462 345.365C790.227 341.872 788.408 235.928 789.499 235.943C790.041 235.951 790.282 262.047 789.499 355.559C789.499 448.55 789.499 422.642 789.499 515.633C529.666 515.633 269.833 515.633 10 515.633Z" fill="#B5CDFB"></path>
<path d="M357.234 414.559C354.053 404.175 344.908 418.386 344.908 418.386C344.908 418.386 351.321 383.895 341.778 383.605C332.235 383.315 329.4 391.704 329.4 391.704C329.4 391.704 328.329 367.228 321.172 367.228C316.553 367.228 313.472 377.38 311.541 391.567C309.608 382.229 305.605 382.274 301.827 382.274C294.67 382.274 293.599 404.6 293.599 404.6C293.599 404.6 293.599 398.251 284.056 398.515C274.512 398.78 279.343 422.7 279.343 422.7C279.343 422.7 268.044 409.868 264.863 419.34C261.682 428.812 239.62 478.239 239.62 478.239H370.106C370.106 478.239 360.416 424.944 357.234 414.559Z" fill="#C4B6FF"></path>
<path d="M716.532 463.873L683.694 464.001L683.712 468.456L716.55 468.328L716.532 463.873Z" fill="#231F20"></path>
<path d="M716.568 473.153L683.73 473.281L683.748 477.736L716.586 477.608L716.568 473.153Z" fill="#231F20"></path>
<path d="M114.197 185.683L97.4125 185.536L97.3735 189.992L114.158 190.139L114.197 185.683Z" fill="#7D55FF"></path>
<path d="M114.116 194.963L81.2791 194.676L81.24 199.131L114.077 199.418L114.116 194.963Z" fill="#C4B6FF"></path>
<path d="M114.116 176.802L105.772 176.729L105.733 181.184L114.077 181.257L114.116 176.802Z" fill="#7D55FF"></path>
<path d="M318.944 318.668L302.159 318.521L302.12 322.976L318.905 323.123L318.944 318.668Z" fill="#C4B6FF"></path>
<path d="M318.863 327.948L286.026 327.66L285.987 332.115L318.824 332.403L318.863 327.948Z" fill="#C4B6FF"></path>
<path d="M318.863 309.787L310.519 309.714L310.48 314.169L318.824 314.242L318.863 309.787Z" fill="#C4B6FF"></path>
<path d="M534.486 316.699L517.702 316.552L517.663 321.008L534.447 321.155L534.486 316.699Z" fill="#C4B6FF"></path>
<path d="M534.405 325.979L501.568 325.692L501.529 330.147L534.366 330.435L534.405 325.979Z" fill="#C4B6FF"></path>
<path d="M534.405 307.819L526.061 307.746L526.022 312.201L534.366 312.274L534.405 307.819Z" fill="#C4B6FF"></path>
<path d="M480.841 147.946V455.868C480.841 464.725 475.676 472.393 468.203 476.018C465.26 477.43 461.957 478.23 458.479 478.23H341.554C329.199 478.23 319.192 468.213 319.192 455.868V147.946C319.192 135.601 329.199 125.584 341.554 125.584H458.479C470.824 125.584 480.841 135.601 480.841 147.946Z" fill="white"></path>
<path fill-rule="evenodd" clip-rule="evenodd" d="M341.554 126.071C329.468 126.071 319.679 135.87 319.679 147.946V455.868C319.679 467.944 329.468 477.742 341.554 477.742H458.479C461.882 477.742 465.113 476.961 467.992 475.579C475.303 472.032 480.353 464.53 480.353 455.868V147.946C480.353 135.87 470.555 126.071 458.479 126.071H341.554ZM318.705 147.946C318.705 135.332 328.93 125.097 341.554 125.097H458.479C471.093 125.097 481.328 135.332 481.328 147.946V455.868C481.328 464.918 476.05 472.753 468.416 476.456L468.414 476.457C465.407 477.9 462.033 478.717 458.479 478.717H341.554C328.93 478.717 318.705 468.482 318.705 455.868V147.946Z" fill="#414042"></path>
<path d="M276.323 149.766V457.679C276.323 470.033 266.317 480.04 253.962 480.04H137.046C132.594 480.04 128.443 478.735 124.955 476.484C118.777 472.518 114.685 465.581 114.685 457.679V149.766C114.685 137.411 124.691 127.405 137.046 127.405H253.962C266.317 127.405 276.323 137.411 276.323 149.766Z" fill="white"></path>
<path fill-rule="evenodd" clip-rule="evenodd" d="M137.046 127.892C124.96 127.892 115.172 137.68 115.172 149.766V457.678C115.172 465.408 119.174 472.194 125.218 476.074L125.219 476.074C128.631 478.276 132.69 479.553 137.046 479.553H253.962C266.048 479.553 275.836 469.764 275.836 457.678V149.766C275.836 137.68 266.048 127.892 253.962 127.892H137.046ZM114.197 149.766C114.197 137.142 124.422 126.917 137.046 126.917H253.962C266.586 126.917 276.811 137.142 276.811 149.766V457.678C276.811 470.302 266.586 480.527 253.962 480.527H137.046C132.497 480.527 128.255 479.193 124.691 476.893C118.38 472.842 114.197 465.753 114.197 457.678V149.766Z" fill="#414042"></path>
<path d="M687.629 147.409V455.321C687.629 456.12 687.59 456.909 687.502 457.689C686.323 468.933 676.823 477.683 665.267 477.683H548.342C535.997 477.683 525.98 467.676 525.98 455.321V147.409C525.98 135.054 535.997 125.047 548.342 125.047H665.267C677.622 125.047 687.629 135.054 687.629 147.409Z" fill="white"></path>
<path fill-rule="evenodd" clip-rule="evenodd" d="M451.671 281.005C458.266 278.671 465.504 282.124 467.839 288.719C469.31 292.876 470.312 297.245 470.784 301.775L470.784 301.775C471.617 309.765 470.732 317.58 468.42 324.882C466.309 331.551 459.19 335.246 452.521 333.134C445.851 331.022 442.157 323.904 444.268 317.235C445.564 313.141 446.048 308.821 445.587 304.401C445.324 301.883 444.77 299.468 443.957 297.173C441.623 290.579 445.076 283.34 451.671 281.005Z" fill="#7D55FF"></path>
<path d="M687.989 457.104C686.81 468.348 677.31 477.098 665.754 477.098H548.829C536.484 477.098 526.467 467.091 526.467 454.737V430.513C532.343 436.184 537.283 456.782 542.31 456.481C551.898 455.886 553.448 379.729 560.58 379.476C566.095 379.291 570.207 424.618 580.73 425.008C586.83 425.232 589.499 410.198 597.148 410.081C607.106 409.925 611.803 435.23 619.539 434.713C628.114 434.128 630.521 402.5 635.958 402.617C642.262 402.754 645.964 445.363 650.115 445.158C653.107 445.002 651.626 422.933 659.099 420.526C664.711 418.714 673.023 428.769 679.249 437.695C684.462 443.219 687.375 450.128 687.989 457.104Z" fill="#7D55FF"></path>
<path fill-rule="evenodd" clip-rule="evenodd" d="M350.556 256.391C356.949 259.232 359.829 266.717 356.988 273.11C354.985 277.618 353.27 283.349 352.545 289.037C351.801 294.867 352.227 299.593 353.44 302.74L341.72 307.257L353.44 302.74C354.207 304.73 355.878 306.878 359.175 309.396C362.162 311.677 365.551 313.601 369.61 315.906C370.223 316.253 370.851 316.61 371.495 316.978C377.57 320.446 379.684 328.182 376.216 334.258C372.748 340.333 365.011 342.447 358.935 338.979C358.407 338.677 357.849 338.362 357.267 338.032C353.331 335.808 348.278 332.95 343.799 329.529C338.515 325.494 332.892 319.871 329.801 311.85L341.62 307.295L329.801 311.85C326.525 303.348 326.376 293.972 327.415 285.831C328.471 277.548 330.897 269.439 333.837 262.823C336.678 256.43 344.163 253.55 350.556 256.391Z" fill="#7D55FF"></path>
<path d="M359.593 287.371C359.593 287.371 365.414 298.133 368.675 305.143C374.894 318.515 397.503 328.012 406.985 328.845C416.926 329.719 433.418 325.598 445.448 314.212C446.447 313.266 450.975 312.272 446.729 321.058C442.027 330.786 434.616 343.251 430.568 345.211C422.865 348.943 376.075 350.931 372.918 348.783C369.762 346.635 355.169 306.27 359.593 287.371Z" fill="#7D55FF"></path>
<path d="M359.593 287.371C359.593 287.371 365.414 298.133 368.675 305.143C374.894 318.515 397.503 328.012 406.985 328.845C416.926 329.719 433.418 325.598 445.448 314.212C446.447 313.267 450.975 312.272 446.729 321.059C442.027 330.787 434.616 343.251 430.568 345.212C422.865 348.943 376.075 350.931 372.918 348.783C369.762 346.635 355.169 306.27 359.593 287.371Z" fill="black" fill-opacity="0.3"></path>
<path d="M458.069 476.753H416.804L387.271 375.487L383.188 361.505H424.453L426.148 367.322L458.069 476.753Z" fill="#7D55FF"></path>
<path d="M426.148 367.322C420.575 370.264 414.505 372.515 408.074 373.947C405.638 374.493 403.182 374.902 400.727 375.185C396.225 375.711 391.714 375.809 387.271 375.487L383.188 361.505H424.453L426.148 367.322Z" fill="black" fill-opacity="0.3"></path>
<path d="M400.273 86.3381V86.3382C400.273 91.8808 395.779 96.3741 390.237 96.3741H292.236C286.693 96.3741 282.2 91.8808 282.2 86.3382V86.3381C282.2 80.7955 286.693 76.3022 292.236 76.3022L390.237 76.3022C395.779 76.3022 400.273 80.7955 400.273 86.3381Z" fill="#C4B6FF"></path>
<path fill-rule="evenodd" clip-rule="evenodd" d="M704.592 66.1121L657.326 66.1121C649.97 66.1121 644.006 72.0756 644.006 79.432V79.432C644.006 86.7883 649.97 92.7519 657.326 92.7519L704.592 92.7519C711.949 92.7519 717.912 86.7883 717.912 79.432C717.912 72.0756 711.949 66.1121 704.592 66.1121ZM657.326 65.1377L704.592 65.1377C712.487 65.1377 718.887 71.5375 718.887 79.432C718.887 87.3265 712.487 93.7262 704.592 93.7262L657.326 93.7262C649.432 93.7262 643.032 87.3265 643.032 79.432V79.432C643.032 71.5375 649.432 65.1377 657.326 65.1377Z" fill="#C4B6FF"></path>
<path d="M447.881 241.596H427.965V307.228H447.881V241.596Z" fill="white"></path>
<path d="M230.995 248.996L256.04 267.84L246.777 245.227L230.995 248.996Z" fill="#7D55FF"></path>
<path d="M275.856 448.415V457.477C275.856 469.832 265.849 479.839 253.494 479.839H136.579C132.126 479.839 127.975 478.533 124.487 476.283C125.188 470.456 126.426 463.353 127.965 454.466C129.573 445.2 133.344 423.511 139.901 423.121C145.748 422.77 148.252 439.646 155.949 439.909C164.124 440.202 168.1 421.425 174.979 422C183.242 422.682 184.888 450.316 192.518 450.735C198.949 451.085 202.154 431.744 209.686 431.705C217.92 431.656 221.077 454.729 229.096 454.837C238.343 454.963 243.38 424.397 251.857 424.982C256.826 425.333 256.407 435.934 267.155 444.021C270.458 446.496 273.381 447.665 275.856 448.415Z" fill="#7D55FF"></path>
<path d="M638.723 237.27L598.692 249.599L614.415 228.911L638.723 237.27Z" fill="#C4B6FF"></path>
<path d="M401.027 236.946H377.6V307.171H401.027V236.946Z" fill="white"></path>
<path d="M377.6 307.171L350.471 291.393L350.449 222.374L377.6 241.539V307.171Z" fill="white"></path>
<path d="M447.72 237.434H377.6V306.677H447.72V237.434Z" fill="#C4B6FF"></path>
<path d="M377.113 307.228L350.689 290.766V221.522L377.379 236.947L377.113 307.228Z" fill="#B5CDFB"></path>
<path d="M447.881 236.94H377.887L350.901 220.732H421.178L447.881 236.94Z" fill="#7D55FF"></path>
<path fill-rule="evenodd" clip-rule="evenodd" d="M359.106 296.769V226.001H360.081V296.769H359.106Z" fill="#414042"></path>
<path fill-rule="evenodd" clip-rule="evenodd" d="M350.958 291.115V220.565H349.984V291.671L377.148 307.714L377.644 306.875L350.958 291.115Z" fill="#414042"></path>
<path fill-rule="evenodd" clip-rule="evenodd" d="M368.229 302.145V231.572H369.203V302.145H368.229Z" fill="#414042"></path>
<path fill-rule="evenodd" clip-rule="evenodd" d="M350.719 267.547L377.847 283.534L377.353 284.373L350.224 268.386L350.719 267.547Z" fill="#414042"></path>
<path fill-rule="evenodd" clip-rule="evenodd" d="M377.353 260.946L350.224 244.959L350.719 244.12L377.847 260.107L377.353 260.946Z" fill="#414042"></path>
<path fill-rule="evenodd" clip-rule="evenodd" d="M375.629 220.629L401.259 236.526L400.746 237.354L375.115 221.457L375.629 220.629Z" fill="#414042"></path>
<path fill-rule="evenodd" clip-rule="evenodd" d="M400.418 236.453H423.845V237.428H400.418V236.453Z" fill="#414042"></path>
<path fill-rule="evenodd" clip-rule="evenodd" d="M424.172 237.354L398.639 221.456L399.154 220.629L424.687 236.527L424.172 237.354Z" fill="#414042"></path>
<path fill-rule="evenodd" clip-rule="evenodd" d="M421.85 221.53H349.984V220.555H421.85V221.53Z" fill="#414042"></path>
<path fill-rule="evenodd" clip-rule="evenodd" d="M377.733 236.459L350.88 220.623L350.385 221.462L377.467 237.434L400.418 237.428L400.418 236.453L377.733 236.459Z" fill="#414042"></path>
<path d="M447.957 237.358L421.23 221.3L421.731 220.465L448.372 236.462L447.957 237.358Z" fill="#414042"></path>
<path fill-rule="evenodd" clip-rule="evenodd" d="M423.845 236.453H448.23V237.428H423.845V236.453Z" fill="#414042"></path>
<path fill-rule="evenodd" clip-rule="evenodd" d="M368.675 231.154H439.48V232.128H368.675V231.154Z" fill="#414042"></path>
<path fill-rule="evenodd" clip-rule="evenodd" d="M430.568 226.829H359.287V225.855H430.568V226.829Z" fill="#414042"></path>
<path fill-rule="evenodd" clip-rule="evenodd" d="M400.54 307.228V236.947H401.514V307.228H400.54Z" fill="#414042"></path>
<path fill-rule="evenodd" clip-rule="evenodd" d="M378.087 236.947V307.228H377.113V236.947H378.087Z" fill="#414042"></path>
<path fill-rule="evenodd" clip-rule="evenodd" d="M423.967 307.228V236.947H424.941V307.228H423.967Z" fill="#414042"></path>
<path fill-rule="evenodd" clip-rule="evenodd" d="M447.394 307.228V236.462H448.369V307.228H447.394Z" fill="#414042"></path>
<path fill-rule="evenodd" clip-rule="evenodd" d="M377.6 283.313H447.881V284.288H377.6V283.313Z" fill="#414042"></path>
<path fill-rule="evenodd" clip-rule="evenodd" d="M447.881 260.861H377.6V259.886H447.881V260.861Z" fill="#414042"></path>
<path fill-rule="evenodd" clip-rule="evenodd" d="M377.113 306.74H447.881V307.715H377.113V306.74Z" fill="#414042"></path>
<path fill-rule="evenodd" clip-rule="evenodd" d="M358.937 260.437C364.469 264.719 365.482 272.675 361.2 278.207C354.643 286.679 352.422 297.713 354.523 307.678L342.144 310.288L354.523 307.678C356.255 315.894 361.835 324.237 369.357 329.368C375.136 333.31 376.626 341.19 372.683 346.97C368.741 352.749 360.861 354.238 355.081 350.296C342.38 341.632 332.867 327.768 329.734 312.904C326.174 296.014 329.845 277.327 341.166 262.701C345.449 257.168 353.404 256.155 358.937 260.437Z" fill="#7D55FF"></path>
<path fill-rule="evenodd" clip-rule="evenodd" d="M369.693 269.702C375.124 274.112 375.95 282.09 371.54 287.52C365.647 294.776 362.393 304.404 363.287 312.978L350.689 314.291L363.287 312.978C364.074 320.526 367.517 327.338 372.966 332.757C377.926 337.691 377.948 345.711 373.014 350.671C368.081 355.631 360.061 355.653 355.101 350.72C345.842 341.511 339.528 329.399 338.09 315.605C336.395 299.347 342.419 283.192 351.875 271.549C356.285 266.118 364.263 265.291 369.693 269.702Z" fill="#7D55FF"></path>
<path fill-rule="evenodd" clip-rule="evenodd" d="M460.168 308.982C466.837 311.094 470.532 318.213 468.42 324.882C460.817 348.895 438.135 366.74 410.784 369.591C389.327 371.827 368.926 364.47 355.101 350.72C350.141 345.787 350.119 337.766 355.052 332.806C359.985 327.846 368.006 327.824 372.966 332.758C381.201 340.948 393.996 345.869 408.158 344.393C426.367 342.496 439.969 330.813 444.268 317.235C446.38 310.565 453.499 306.871 460.168 308.982Z" fill="#7D55FF"></path>
<path d="M464.701 476.752C461.758 478.164 457.85 477.692 454.372 477.692H406.842L394.469 433.115L387.794 409.292L386.605 405.043H444.474L445.662 409.292L452.337 433.115L464.701 476.752Z" fill="#C4B6FF"></path>
<path opacity="0.28" d="M452.337 433.115H394.469L387.794 409.292H445.662L452.337 433.115Z" fill="#231F20"></path>
<path d="M139.849 478.108C139.849 478.108 169.424 362.647 164.495 340.585C159.566 318.523 145.394 348.715 145.394 348.715C145.394 348.715 150.94 278.473 136.152 277.857C121.364 277.241 121.364 292.029 121.364 292.029C121.364 292.029 120.748 213.161 109.657 213.161C86.2435 213.161 94.2535 470.714 101.031 478.108H139.849Z" fill="#C4B6FF"></path>
<path d="M249.576 472.601L249.576 472.602C244.557 478.342 235.834 478.927 230.093 473.909L161.992 414.37C156.251 409.351 155.666 400.628 160.685 394.887L160.685 394.887C165.704 389.146 174.426 388.561 180.167 393.58L248.269 453.119C254.01 458.138 254.595 466.861 249.576 472.601Z" fill="#C4B6FF"></path>
<path fill-rule="evenodd" clip-rule="evenodd" d="M209.975 381.544C201.176 381.544 194.043 388.677 194.043 397.476C194.043 406.275 201.176 413.408 209.975 413.408C218.774 413.408 225.907 406.275 225.907 397.476C225.907 388.677 218.774 381.544 209.975 381.544ZM193.069 397.476C193.069 388.139 200.638 380.57 209.975 380.57C219.313 380.57 226.882 388.139 226.882 397.476C226.882 406.813 219.313 414.383 209.975 414.383C200.638 414.383 193.069 406.813 193.069 397.476Z" fill="#414042"></path>
<path d="M450.899 427.192H388.437C386.687 427.192 385.124 426.098 384.525 424.454L378.877 408.952C377.888 406.236 379.899 403.363 382.79 403.363H444.746C446.204 403.363 447.507 404.275 448.006 405.645L454.159 422.535C454.984 424.798 453.308 427.192 450.899 427.192Z" fill="#B5CDFB"></path>
<path d="M397.288 413.132H385.999C385.433 413.132 384.973 412.672 384.973 412.106C384.973 411.539 385.433 411.079 385.999 411.079H397.288C397.854 411.079 398.314 411.539 398.314 412.106C398.314 412.672 397.854 413.132 397.288 413.132Z" fill="#C4B6FF"></path>
<path d="M399.527 419.476H388.238C387.672 419.476 387.212 419.016 387.212 418.45C387.212 417.883 387.672 417.423 388.238 417.423H399.527C400.093 417.423 400.553 417.883 400.553 418.45C400.553 419.016 400.093 419.476 399.527 419.476Z" fill="#C4B6FF"></path>
<path fill-rule="evenodd" clip-rule="evenodd" d="M238.037 338.068L244.635 343.217L251.236 338.068L257.836 343.217L264.437 338.068L271.039 343.217L277.638 338.068L284.243 343.218L290.852 338.068L297.761 343.451C297.973 343.616 298.011 343.922 297.845 344.135C297.68 344.347 297.374 344.385 297.162 344.22L290.852 339.303L284.243 344.453L277.638 339.303L271.04 344.453L264.437 339.303L257.836 344.453L251.236 339.303L244.635 344.453L238.037 339.304L231.435 344.453L224.834 339.303L218.234 344.453L211.334 339.07C211.122 338.904 211.084 338.598 211.249 338.386C211.415 338.174 211.721 338.136 211.933 338.301L218.234 343.217L224.834 338.068L231.435 343.217L238.037 338.068Z" fill="#414042"></path>
<path fill-rule="evenodd" clip-rule="evenodd" d="M224.23 346.965L230.827 352.114L237.428 346.965L244.028 352.114L250.629 346.965L257.232 352.114L263.83 346.965L270.435 352.115L277.044 346.965L283.953 352.348C284.165 352.513 284.203 352.819 284.038 353.032C283.872 353.244 283.566 353.282 283.354 353.117L277.044 348.2L270.435 353.35L263.831 348.2L257.232 353.35L250.629 348.2L244.028 353.35L237.428 348.2L230.827 353.35L224.229 348.2L217.627 353.35L211.026 348.2L204.426 353.35L197.526 347.967C197.314 347.801 197.276 347.495 197.441 347.283C197.607 347.071 197.913 347.033 198.125 347.198L204.426 352.114L211.026 346.965L217.627 352.114L224.23 346.965Z" fill="#414042"></path>
<path fill-rule="evenodd" clip-rule="evenodd" d="M458.584 175.528L465.182 180.678L471.782 175.528L478.383 180.678L484.983 175.528L491.586 180.678L498.185 175.528L504.79 180.678L511.399 175.528L518.307 180.911C518.519 181.077 518.557 181.383 518.392 181.595C518.227 181.807 517.92 181.845 517.708 181.68L511.399 176.764L504.789 181.913L498.185 176.764L491.586 181.914L484.984 176.764L478.383 181.914L471.782 176.764L465.182 181.914L458.584 176.764L451.982 181.914L445.381 176.764L438.78 181.914L431.88 176.53C431.668 176.365 431.63 176.058 431.796 175.846C431.961 175.634 432.267 175.596 432.48 175.762L438.78 180.678L445.38 175.528L451.982 180.678L458.584 175.528Z" fill="#7D55FF"></path>
<path fill-rule="evenodd" clip-rule="evenodd" d="M444.776 184.425L451.374 189.574L457.974 184.425L464.575 189.575L471.176 184.425L477.778 189.575L484.377 184.425L490.982 189.575L497.591 184.425L504.499 189.808C504.711 189.973 504.749 190.28 504.584 190.492C504.419 190.704 504.113 190.742 503.9 190.577L497.591 185.66L490.981 190.81L484.377 185.661L477.778 190.81L471.176 185.661L464.575 190.81L457.974 185.661L451.374 190.81L444.776 185.661L438.174 190.81L431.573 185.661L424.972 190.81L418.072 185.427C417.86 185.261 417.822 184.955 417.988 184.743C418.153 184.531 418.46 184.493 418.672 184.659L424.972 189.574L431.573 184.425L438.174 189.575L444.776 184.425Z" fill="#7D55FF"></path>
<path d="M192.691 506.792C240.125 506.792 278.577 504.62 278.577 501.94C278.577 499.261 240.125 497.089 192.691 497.089C145.257 497.089 106.804 499.261 106.804 501.94C106.804 504.62 145.257 506.792 192.691 506.792Z" fill="black" fill-opacity="0.22"></path>
<path d="M400.003 506.792C447.437 506.792 485.89 504.62 485.89 501.94C485.89 499.261 447.437 497.089 400.003 497.089C352.569 497.089 314.116 499.261 314.116 501.94C314.116 504.62 352.569 506.792 400.003 506.792Z" fill="black" fill-opacity="0.22"></path>
<path d="M606.804 506.792C654.238 506.792 692.691 504.62 692.691 501.94C692.691 499.261 654.238 497.089 606.804 497.089C559.37 497.089 520.917 499.261 520.917 501.94C520.917 504.62 559.37 506.792 606.804 506.792Z" fill="black" fill-opacity="0.22"></path>
<path d="M40.842 181.523C45.606 181.523 49.4679 177.661 49.4679 172.897C49.4679 168.133 45.606 164.271 40.842 164.271C36.0781 164.271 32.2162 168.133 32.2162 172.897C32.2162 177.661 36.0781 181.523 40.842 181.523Z" fill="#C4B6FF"></path>
<path d="M753.566 228.798C761.92 228.798 768.693 222.025 768.693 213.671C768.693 205.317 761.92 198.544 753.566 198.544C745.212 198.544 738.439 205.317 738.439 213.671C738.439 222.025 745.212 228.798 753.566 228.798Z" fill="#C4B6FF"></path>
<path d="M319.061 457.383C323.825 457.383 327.687 453.521 327.687 448.757C327.687 443.993 323.825 440.131 319.061 440.131C314.297 440.131 310.435 443.993 310.435 448.757C310.435 453.521 314.297 457.383 319.061 457.383Z" fill="#7D55FF"></path>
<path d="M483.72 365.946C488.484 365.946 492.345 362.084 492.345 357.32C492.345 352.556 488.484 348.694 483.72 348.694C478.956 348.694 475.094 352.556 475.094 357.32C475.094 362.084 478.956 365.946 483.72 365.946Z" fill="#7D55FF"></path>
<path fill-rule="evenodd" clip-rule="evenodd" d="M304.748 549.402C304.748 549.133 304.966 548.915 305.235 548.915C309.561 548.915 311.75 550.978 313.821 552.932L313.835 552.945C315.892 554.885 317.837 556.71 321.766 556.71C325.696 556.71 327.641 554.885 329.698 552.945L329.712 552.932C331.783 550.978 333.972 548.915 338.299 548.915C342.626 548.915 344.814 550.978 346.886 552.932L346.9 552.945C348.957 554.885 350.902 556.71 354.833 556.71C358.763 556.71 360.707 554.885 362.765 552.945L362.778 552.932C364.85 550.978 367.038 548.915 371.365 548.915C375.692 548.915 377.88 550.978 379.952 552.932L379.965 552.945C382.023 554.885 383.967 556.71 387.897 556.71C391.827 556.71 393.772 554.885 395.829 552.945L395.843 552.932C397.915 550.978 400.103 548.915 404.43 548.915C408.756 548.915 410.945 550.978 413.016 552.932L413.03 552.945C415.088 554.885 417.032 556.71 420.962 556.71C424.892 556.71 426.837 554.885 428.895 552.945L428.909 552.932C430.98 550.978 433.169 548.915 437.496 548.915C441.823 548.915 444.012 550.978 446.084 552.932L446.097 552.945C448.155 554.885 450.1 556.71 454.031 556.71C457.961 556.71 459.906 554.885 461.963 552.945L461.977 552.932C464.049 550.978 466.237 548.915 470.564 548.915C474.891 548.915 477.08 550.978 479.151 552.932L479.165 552.945C481.223 554.885 483.167 556.71 487.098 556.71C491.027 556.71 492.971 554.885 495.029 552.945L495.043 552.932C497.114 550.978 499.302 548.915 503.628 548.915C507.955 548.915 510.143 550.978 512.214 552.932L512.228 552.945C514.285 554.885 516.23 556.71 520.159 556.71C524.089 556.71 526.034 554.885 528.092 552.945L528.106 552.932C530.177 550.978 532.366 548.915 536.692 548.915C541.02 548.915 543.209 550.978 545.281 552.932L545.294 552.945C547.352 554.885 549.297 556.71 553.228 556.71C557.158 556.71 559.103 554.885 561.16 552.945L561.174 552.932C563.246 550.978 565.434 548.915 569.761 548.915C574.088 548.915 576.277 550.978 578.348 552.932L578.362 552.945C580.42 554.885 582.365 556.71 586.295 556.71C590.226 556.71 592.171 554.885 594.229 552.945L594.242 552.932C596.314 550.978 598.503 548.915 602.83 548.915C607.158 548.915 609.347 550.978 611.419 552.932L611.433 552.945C613.491 554.885 615.436 556.71 619.367 556.71C623.297 556.71 625.242 554.885 627.299 552.945L627.313 552.932C629.384 550.978 631.573 548.915 635.9 548.915C640.228 548.915 642.417 550.978 644.489 552.932L644.503 552.945C646.561 554.885 648.506 556.71 652.438 556.71C656.369 556.71 658.315 554.885 660.373 552.945L660.387 552.932C662.459 550.978 664.648 548.915 668.977 548.915C673.305 548.915 675.495 550.978 677.567 552.932L677.581 552.945C679.64 554.885 681.586 556.71 685.518 556.71C689.45 556.71 691.396 554.885 693.454 552.945L693.468 552.932C695.541 550.978 697.73 548.915 702.059 548.915C702.328 548.915 702.546 549.133 702.546 549.402C702.546 549.671 702.328 549.889 702.059 549.889C698.127 549.889 696.181 551.714 694.123 553.654L694.109 553.667C692.036 555.62 689.847 557.684 685.518 557.684C681.189 557.684 679 555.62 676.927 553.667L676.913 553.654C674.854 551.714 672.909 549.889 668.977 549.889C665.045 549.889 663.1 551.714 661.041 553.654L661.027 553.667C658.955 555.62 656.766 557.684 652.438 557.684C648.11 557.684 645.92 555.62 643.848 553.667L643.834 553.654C641.776 551.714 639.831 549.889 635.9 549.889C631.97 549.889 630.025 551.713 627.968 553.654L627.954 553.667C625.882 555.62 623.694 557.684 619.367 557.684C615.039 557.684 612.85 555.62 610.778 553.667L610.764 553.654C608.706 551.714 606.761 549.889 602.83 549.889C598.9 549.889 596.955 551.714 594.897 553.654L594.883 553.667C592.811 555.62 590.623 557.684 586.295 557.684C581.968 557.684 579.78 555.62 577.708 553.667L577.694 553.654C575.636 551.714 573.691 549.889 569.761 549.889C565.831 549.889 563.886 551.713 561.829 553.654L561.815 553.667C559.743 555.62 557.555 557.684 553.228 557.684C548.901 557.684 546.712 555.62 544.64 553.667L544.626 553.654C542.568 551.714 540.623 549.889 536.692 549.889C532.762 549.889 530.818 551.713 528.76 553.654L528.746 553.667C526.675 555.62 524.486 557.684 520.159 557.684C515.833 557.684 513.645 555.62 511.573 553.667L511.56 553.654C509.502 551.713 507.558 549.889 503.628 549.889C499.699 549.889 497.754 551.713 495.697 553.654L495.683 553.667C493.612 555.62 491.424 557.684 487.098 557.684C482.771 557.684 480.582 555.62 478.51 553.667L478.497 553.654C476.439 551.713 474.494 549.889 470.564 549.889C466.634 549.889 464.689 551.713 462.632 553.654L462.618 553.667C460.546 555.62 458.358 557.684 454.031 557.684C449.703 557.684 447.515 555.62 445.443 553.667L445.429 553.654C443.371 551.714 441.426 549.889 437.496 549.889C433.565 549.889 431.621 551.713 429.563 553.654L429.549 553.667C427.478 555.62 425.289 557.684 420.962 557.684C416.636 557.684 414.447 555.62 412.376 553.667L412.362 553.654C410.304 551.713 408.36 549.889 404.43 549.889C400.5 549.889 398.555 551.713 396.498 553.654L396.484 553.667C394.412 555.62 392.224 557.684 387.897 557.684C383.571 557.684 381.382 555.62 379.311 553.667L379.297 553.654C377.239 551.713 375.295 549.889 371.365 549.889C367.435 549.889 365.491 551.713 363.433 553.654L363.419 553.667C361.348 555.62 359.159 557.684 354.833 557.684C350.506 557.684 348.317 555.62 346.245 553.667L346.231 553.654C344.174 551.713 342.229 549.889 338.299 549.889C334.369 549.889 332.424 551.713 330.367 553.654L330.353 553.667C328.281 555.62 326.093 557.684 321.766 557.684C317.44 557.684 315.252 555.62 313.18 553.667L313.166 553.654C311.109 551.713 309.165 549.889 305.235 549.889C304.966 549.889 304.748 549.671 304.748 549.402Z" fill="#C4B6FF"></path>
<path d="M629.545 477.164C638.613 477.164 645.964 469.813 645.964 460.744C645.964 451.676 638.613 444.325 629.545 444.325C620.477 444.325 613.126 451.676 613.126 460.744C613.126 469.813 620.477 477.164 629.545 477.164Z" fill="#C4B6FF"></path>
<path d="M617.936 305.201L614.079 319.038L610.222 332.876L600.167 322.617L590.112 312.358L604.024 308.78L617.936 305.201Z" fill="#7D55FF"></path>
<path fill-rule="evenodd" clip-rule="evenodd" d="M630.702 305.508L617.619 352.444L583.512 317.646L630.702 305.508ZM629.31 306.872L585.389 318.169L617.133 350.557L629.31 306.872Z" fill="#414042"></path>
<path d="M256.181 248.996L150.624 248.996C147.881 248.996 145.657 246.772 145.657 244.028L145.657 227.307C145.657 224.564 147.881 222.34 150.624 222.34L256.181 222.34C258.925 222.34 261.149 224.564 261.149 227.307V244.028C261.149 246.772 258.925 248.996 256.181 248.996Z" fill="#C4B6FF"></path>
<path d="M160.871 199.553L135.826 218.398L145.089 195.784L160.871 199.553Z" fill="#C4B6FF"></path>
<path d="M135.684 199.553L241.241 199.553C243.985 199.553 246.208 197.329 246.208 194.586L246.208 177.864C246.208 175.121 243.985 172.897 241.241 172.897L135.684 172.897C132.941 172.897 130.717 175.121 130.717 177.864L130.717 194.586C130.717 197.329 132.941 199.553 135.684 199.553Z" fill="#7D55FF"></path>
<path d="M186.934 190.38C188.079 190.482 187.709 188.913 187.531 188.096C187.172 186.448 190.483 186.977 191.868 184.84C192.706 183.546 192.925 180.783 191.923 179.409C190.894 177.996 188.781 177.695 187.675 177.909C185.093 178.409 184.464 180.491 184.344 182.116C184.28 182.975 184.62 183.012 185.366 182.932C186.334 182.828 185.615 180.142 187.875 179.6C188.634 179.418 190.477 179.847 190.863 180.516C191.506 181.632 190.597 183.887 190.238 184.302C189.405 185.264 185.741 186.078 186.03 187.988C186.217 189.223 185.458 190.248 186.934 190.38Z" fill="#C4B6FF"></path>
<path d="M186.969 194.603C187.572 194.603 188.06 194.114 188.06 193.512C188.06 192.909 187.572 192.421 186.969 192.421C186.367 192.421 185.878 192.909 185.878 193.512C185.878 194.114 186.367 194.603 186.969 194.603Z" fill="#C4B6FF"></path>
<path fill-rule="evenodd" clip-rule="evenodd" d="M562.098 416.643C553.299 416.643 546.166 423.776 546.166 432.575C546.166 441.374 553.299 448.507 562.098 448.507C570.897 448.507 578.03 441.374 578.03 432.575C578.03 423.776 570.897 416.643 562.098 416.643ZM545.192 432.575C545.192 423.238 552.761 415.669 562.098 415.669C571.435 415.669 579.005 423.238 579.005 432.575C579.005 441.913 571.435 449.482 562.098 449.482C552.761 449.482 545.192 441.913 545.192 432.575Z" fill="#414042"></path>
<path d="M195.504 237.813C196.689 237.813 197.65 236.853 197.65 235.668C197.65 234.483 196.689 233.522 195.504 233.522C194.319 233.522 193.358 234.483 193.358 235.668C193.358 236.853 194.319 237.813 195.504 237.813Z" fill="#7D55FF"></path>
<path d="M203.403 237.813C204.588 237.813 205.549 236.853 205.549 235.668C205.549 234.483 204.588 233.522 203.403 233.522C202.218 233.522 201.257 234.483 201.257 235.668C201.257 236.853 202.218 237.813 203.403 237.813Z" fill="#7D55FF"></path>
<path d="M211.302 237.813C212.487 237.813 213.448 236.853 213.448 235.668C213.448 234.483 212.487 233.522 211.302 233.522C210.117 233.522 209.156 234.483 209.156 235.668C209.156 236.853 210.117 237.813 211.302 237.813Z" fill="#7D55FF"></path>
<path d="M221.314 138.363H164.067C159.734 138.363 156.221 134.85 156.221 130.516V124.182H229.16V130.516C229.16 134.85 225.647 138.363 221.314 138.363Z" fill="#C4B6FF"></path>
<path d="M428.014 138.363H370.768C366.435 138.363 362.922 134.85 362.922 130.516V124.182H435.861V130.516C435.861 134.85 432.348 138.363 428.014 138.363Z" fill="#C4B6FF"></path>
<path d="M635.427 138.363H578.181C573.848 138.363 570.335 134.85 570.335 130.516V124.182H643.274V130.516C643.274 134.85 639.761 138.363 635.427 138.363Z" fill="#7D55FF"></path>
<path d="M343.974 284.206C343.974 284.206 351.128 288.777 355.757 281.695C363.403 269.999 354.209 269.361 354.209 269.361C354.209 269.361 347.55 273.369 343.974 284.206Z" fill="#C4B6FF"></path>
<path fill-rule="evenodd" clip-rule="evenodd" d="M548.714 125.081C536.628 125.081 526.839 134.879 526.839 146.956V454.877C526.839 466.954 536.628 476.752 548.714 476.752H665.639C669.042 476.752 672.273 475.97 675.152 474.588C682.463 471.041 687.514 463.54 687.514 454.877V146.956C687.514 134.88 677.715 125.081 665.639 125.081H548.714ZM525.865 146.956C525.865 134.342 536.09 124.107 548.714 124.107H665.639C678.253 124.107 688.488 134.341 688.488 146.956V454.877C688.488 463.928 683.21 471.763 675.576 475.466L675.574 475.467C672.568 476.91 669.193 477.727 665.639 477.727H548.714C536.09 477.727 525.865 467.492 525.865 454.877V146.956Z" fill="#414042"></path>
<path d="M525.474 237.62C530.238 237.62 534.1 233.758 534.1 228.995C534.1 224.231 530.238 220.369 525.474 220.369C520.71 220.369 516.848 224.231 516.848 228.995C516.848 233.758 520.71 237.62 525.474 237.62Z" fill="#C4B6FF"></path>
<path d="M608.043 226.399L692.94 255.15C699.703 257.441 707.042 253.815 709.333 247.051L722.943 206.863C725.233 200.099 721.608 192.76 714.844 190.469L629.948 161.718C623.184 159.428 615.845 163.054 613.554 169.817L599.944 210.006C597.654 216.769 601.279 224.108 608.043 226.399Z" fill="#7D55FF"></path>
<path fill-rule="evenodd" clip-rule="evenodd" d="M613.093 169.661C615.47 162.643 623.086 158.88 630.104 161.257L715.001 190.008C722.019 192.385 725.781 200.001 723.405 207.019L709.794 247.208C707.417 254.226 699.801 257.988 692.783 255.612L607.886 226.86C600.868 224.484 597.106 216.868 599.483 209.849L599.944 210.006L599.483 209.849L613.093 169.661ZM629.791 162.18C623.283 159.976 616.22 163.465 614.016 169.973L613.554 169.817L614.016 169.973L600.405 210.162C598.201 216.67 601.691 223.733 608.199 225.937L693.096 254.689C699.604 256.893 706.667 253.403 708.871 246.895L722.482 206.706C724.686 200.198 721.196 193.135 714.688 190.931L629.791 162.18Z" fill="#B5CDFB"></path>
<path d="M654.21 209.379C655.395 209.379 656.355 208.419 656.355 207.234C656.355 206.049 655.395 205.088 654.21 205.088C653.025 205.088 652.064 206.049 652.064 207.234C652.064 208.419 653.025 209.379 654.21 209.379Z" fill="#C4B6FF"></path>
<path d="M662.046 211.525C663.231 211.525 664.192 210.564 664.192 209.379C664.192 208.194 663.231 207.234 662.046 207.234C660.861 207.234 659.9 208.194 659.9 209.379C659.9 210.564 660.861 211.525 662.046 211.525Z" fill="#C4B6FF"></path>
<path d="M669.883 213.671C671.068 213.671 672.028 212.71 672.028 211.525C672.028 210.34 671.068 209.379 669.883 209.379C668.697 209.379 667.737 210.34 667.737 211.525C667.737 212.71 668.697 213.671 669.883 213.671Z" fill="#C4B6FF"></path>
<path d="M695.836 478.108C695.836 478.108 723.062 371.622 718.525 351.312C713.987 331.003 700.941 358.796 700.941 358.796C700.941 358.796 706.046 294.133 692.432 293.566C678.819 292.999 678.819 306.612 678.819 306.612C678.819 306.612 677.292 258.741 667.082 258.741C645.527 258.741 647.408 471.302 653.647 478.108H695.836Z" fill="#C4B6FF"></path>
<path d="M604.432 464.3V464.3C604.432 471.926 598.25 478.107 590.625 478.107H500.167C492.541 478.107 486.36 471.926 486.36 464.3V464.3C486.36 456.675 492.541 450.493 500.167 450.493H590.625C598.25 450.493 604.432 456.675 604.432 464.3Z" fill="#C4B6FF"></path>
</svg>
