<svg width="400" height="300" viewBox="0 0 800 600" fill="none" xmlns="http://www.w3.org/2000/svg" data-reactroot="">
<g opacity="0.4">
<path opacity="0.4" d="M16.1191 342.698C31.919 304.224 93.6823 292.528 119.845 287.604C263.583 260.415 343.608 352.65 418.094 312.842C460.056 290.476 439.434 258.774 505.096 203.782C514.842 195.574 550.751 166.232 636.933 149.816C705.673 136.786 770.001 124.475 786.724 151.355C804.884 180.595 741.889 216.401 736.041 304.84C731.835 368.553 760.562 411.643 742.197 424.57C720.549 439.755 670.482 387.533 645.551 405.282C631.598 415.234 644.525 436.882 633.137 454.016C602.358 500.082 503.557 469.508 334.888 476.074C194.945 481.512 159.755 506.545 100.659 476.074C45.8722 447.963 -1.73277 386.302 16.1191 342.698Z" fill="#000000"></path>
</g>
<path d="M162.153 338.269H27.9558V351.811H162.153V338.269Z" fill="#9E6B93"></path>
<path d="M113.828 324.623H11.7444V338.166H113.828V324.623Z" fill="#9E6B93"></path>
<path d="M62.735 351.812H11.7444V365.354H62.735V351.812Z" fill="#9E6B93"></path>
<path d="M108.39 337.756H10V338.782H108.39V337.756Z" fill="#FFE7C2"></path>
<path d="M66.2231 351.299H37.1882V352.325H66.2231V351.299Z" fill="#FFE7C2"></path>
<path d="M28.4674 338.269H27.4414V351.811H28.4674V338.269Z" fill="#FFE7C2"></path>
<path d="M63.2476 324.623H62.2217V338.166H63.2476V324.623Z" fill="#FFE7C2"></path>
<path d="M95.5643 338.269H94.5383V351.811H95.5643V338.269Z" fill="#FFE7C2"></path>
<path d="M39.0349 364.842H10V365.868H39.0349V364.842Z" fill="#FFE7C2"></path>
<g opacity="0.4">
<path opacity="0.4" d="M262.867 579.064C371.602 579.064 459.75 572.725 459.75 564.905C459.75 557.086 371.602 550.747 262.867 550.747C154.131 550.747 65.9834 557.086 65.9834 564.905C65.9834 572.725 154.131 579.064 262.867 579.064Z" fill="#000000"></path>
</g>
<g opacity="0.4">
<path opacity="0.4" d="M721.576 576.191L720.96 574.242C727.526 572.19 734.811 572.601 741.89 573.114C748.251 573.524 754.304 573.832 759.844 572.601L760.357 574.55C754.509 575.884 748.046 575.576 741.787 575.166C734.913 574.755 727.834 574.345 721.576 576.191Z" fill="#FFE7C2"></path>
</g>
<g opacity="0.4">
<path opacity="0.4" d="M773.8 581.116H736.762V583.168H773.8V581.116Z" fill="#FFE7C2"></path>
</g>
<g opacity="0.4">
<path opacity="0.4" d="M589.538 574.55C560.4 574.55 553.526 571.164 550.961 569.83C544.395 566.65 543.882 564.905 543.677 564.29C543.472 563.777 543.574 563.161 543.78 562.751C544.703 561.109 547.268 561.007 555.065 561.007C557.22 561.007 559.887 560.904 562.863 560.904C567.479 560.802 572.199 560.699 576.816 560.699C580.612 560.699 584.408 560.596 588.204 560.494H588.409C594.36 560.391 599.387 560.289 601.747 562.751C602.465 563.469 603.388 565.111 602.568 566.65C601.029 569.317 594.975 569.42 588.614 569.215C582.869 569.009 573.635 567.676 572.507 566.137C572.302 565.829 572.199 565.521 572.302 565.111C572.507 563.982 572.712 563.059 593.744 563.777L593.642 565.829C584.305 565.521 579.381 565.521 576.816 565.726C579.586 566.342 584.1 567.06 588.82 567.265C597.951 567.573 600.413 566.65 600.926 565.726C601.234 565.213 600.413 564.29 600.413 564.29C598.669 562.443 593.539 562.546 588.512 562.648H588.307C584.511 562.751 580.714 562.751 576.918 562.854C572.302 562.956 567.582 562.956 562.965 563.059C559.887 563.161 557.322 563.161 555.168 563.161C550.141 563.264 546.139 563.264 545.729 563.88C545.729 564.187 546.96 565.726 551.987 568.189C554.86 569.625 563.581 573.934 607.287 572.293C611.288 572.19 620.625 571.78 630.987 568.496C637.656 566.342 641.144 564.803 641.144 563.88C640.939 563.469 638.887 561.315 613.956 559.16C596.822 557.724 578.97 557.211 561.016 557.519V555.467C579.073 555.056 596.925 555.672 614.161 557.108C642.58 559.468 642.991 562.033 643.196 563.572C643.606 566.342 638.374 568.291 631.603 570.446C621.035 573.831 611.494 574.139 607.39 574.344C600.618 574.447 594.668 574.55 589.538 574.55Z" fill="#FFE7C2"></path>
</g>
<g opacity="0.4">
<path opacity="0.4" d="M390.691 539.933C361.553 539.933 354.679 536.548 352.114 535.214C345.548 532.033 345.035 530.289 344.83 529.674C344.625 529.161 344.728 528.545 344.933 528.135C345.856 526.493 348.421 526.391 356.218 526.391C358.373 526.391 361.04 526.288 364.016 526.288C368.633 526.185 373.352 526.083 377.969 526.083C381.765 526.083 385.561 525.98 389.357 525.878H389.562C395.513 525.775 400.54 525.672 402.9 528.135C403.823 529.058 404.541 530.597 403.721 532.033C402.182 534.701 396.129 534.804 389.768 534.598C384.022 534.393 374.788 533.059 373.66 531.52C373.455 531.213 373.352 530.905 373.455 530.495C373.66 529.366 373.865 528.443 394.897 529.161L394.795 531.213C385.458 530.905 380.534 530.905 377.969 531.11C380.739 531.726 385.253 532.444 389.973 532.649C399.104 532.957 401.566 532.033 402.079 531.11C402.387 530.597 401.566 529.674 401.566 529.674C399.822 527.827 394.692 527.93 389.665 528.032H389.46C385.664 528.135 381.868 528.135 378.071 528.237C373.455 528.34 368.735 528.34 364.118 528.443C361.04 528.545 358.475 528.545 356.218 528.545C351.191 528.648 347.19 528.648 346.779 529.263C346.779 529.571 348.011 531.11 353.038 533.572C355.911 535.009 364.734 539.318 408.338 537.676C412.647 537.471 421.675 537.163 432.037 533.88C438.706 531.726 442.195 530.187 442.195 529.263C441.989 528.853 439.937 526.698 415.006 524.544C397.873 523.108 380.021 522.595 362.066 522.902V520.85C380.123 520.44 397.975 521.056 415.212 522.492C443.631 524.852 444.041 527.417 444.246 528.956C444.657 531.726 439.424 533.675 432.653 535.83C422.086 539.215 412.544 539.523 408.44 539.728C401.771 539.831 395.821 539.933 390.691 539.933Z" fill="#FFE7C2"></path>
</g>
<path d="M675.822 354.583H542.344V363.714H675.822V354.583Z" fill="#9E6B93"></path>
<path d="M643.399 345.451H574.865V354.582H643.399V345.451Z" fill="#9E6B93"></path>
<path d="M590.358 354.069H570.865V355.095H590.358V354.069Z" fill="#FFE7C2"></path>
<path d="M586.255 354.583H585.229V363.714H586.255V354.583Z" fill="#FFE7C2"></path>
<path d="M609.647 345.451H608.621V354.582H609.647V345.451Z" fill="#FFE7C2"></path>
<path d="M631.293 354.583H630.267V363.714H631.293V354.583Z" fill="#FFE7C2"></path>
<path d="M631.499 354.069H622.368V355.095H631.499V354.069Z" fill="#FFE7C2"></path>
<g opacity="0.8">
<path d="M152.369 94.8066H18.8901V103.938H152.369V94.8066Z" fill="#000000"></path>
<path d="M119.95 85.6758H51.4155V94.8069H119.95V85.6758Z" fill="#000000"></path>
</g>
<g opacity="0.46">
<g opacity="0.46">
<path opacity="0.5" d="M744.866 170.523H499.66C499.66 143.951 510.432 123.636 527.771 109.991C545.11 96.243 569.118 89.2664 595.69 89.2664H610.362L608.412 17.0382L618.672 16.833L620.621 89.1638H648.836C701.878 89.1638 744.866 117.481 744.866 170.523Z" fill="#000000"></path>
</g>
</g>
<path d="M365.669 202.739C373.658 202.739 380.135 196.262 380.135 188.273C380.135 180.283 373.658 173.807 365.669 173.807C357.679 173.807 351.203 180.283 351.203 188.273C351.203 196.262 357.679 202.739 365.669 202.739Z" fill="#000000"></path>
<path d="M274.77 223.668C281.003 223.668 286.056 218.615 286.056 212.382C286.056 206.149 281.003 201.097 274.77 201.097C268.537 201.097 263.484 206.149 263.484 212.382C263.484 218.615 268.537 223.668 274.77 223.668Z" fill="#9E6B93"></path>
<path d="M274.768 221.308C268.305 221.308 262.969 215.973 262.969 209.51C262.969 203.046 268.305 197.711 274.768 197.711C281.232 197.711 286.567 203.046 286.567 209.51C286.567 215.973 281.334 221.308 274.768 221.308ZM274.768 198.839C268.818 198.839 263.995 203.662 263.995 209.612C263.995 215.563 268.818 220.385 274.768 220.385C280.719 220.385 285.541 215.563 285.541 209.612C285.541 203.662 280.719 198.839 274.768 198.839Z" fill="#FFE7C2"></path>
<path d="M270.256 206.33C270.769 209.1 271.487 211.87 271.898 214.64C272 215.051 272.513 215.358 272.821 215.051C274.052 214.23 275.181 212.486 276.207 211.767C277.746 210.536 279.182 209.203 280.721 207.869C281.132 207.458 280.926 206.843 280.311 206.843C278.567 206.74 276.823 206.33 275.181 206.125C274.258 205.919 272.308 205.919 271.077 205.612C270.564 205.509 270.154 205.919 270.256 206.33Z" fill="#FFE7C2"></path>
<path d="M304.935 146.926L304.012 146.002C300.934 143.027 295.496 138.41 293.855 138.41C293.855 138.41 293.855 138.41 293.752 138.41L260.716 141.078C257.638 141.283 254.56 140.257 252.303 138.205C250.046 136.05 248.712 133.075 248.815 129.997L248.917 114.915C248.917 111.837 250.251 108.862 252.611 106.81C254.868 104.758 258.049 103.732 261.126 104.04L294.06 107.323C299.805 107.836 304.115 112.658 304.012 118.404L303.909 127.637C303.909 130.613 304.833 145.592 304.833 145.797L304.935 146.926ZM293.855 137.281C296.112 137.281 301.447 142.001 303.807 144.258C303.602 140.462 302.883 129.894 302.986 127.33L303.089 118.096C303.089 112.863 299.19 108.554 294.06 108.041L261.126 104.758C258.356 104.45 255.484 105.374 253.432 107.323C251.38 109.17 250.149 111.94 250.149 114.71L250.046 129.792C250.046 132.562 251.175 135.332 253.227 137.179C255.278 139.128 258.049 140.052 260.921 139.846L293.957 137.179C293.752 137.281 293.752 137.281 293.855 137.281Z" fill="#FFE7C2"></path>
<path d="M257.534 128.252H269.025C269.846 128.252 270.461 127.329 270.051 126.611C269.23 124.867 267.281 122.302 263.587 122.302C258.868 122.302 256.713 124.764 256.406 127.021C256.303 127.739 256.816 128.252 257.534 128.252Z" fill="#FFE7C2"></path>
<path d="M263.28 122.405C264.81 122.405 266.05 121.165 266.05 119.635C266.05 118.105 264.81 116.865 263.28 116.865C261.75 116.865 260.51 118.105 260.51 119.635C260.51 121.165 261.75 122.405 263.28 122.405Z" fill="#FFE7C2"></path>
<path d="M292.519 118.301H277.335C277.027 118.301 276.822 118.096 276.822 117.788C276.822 117.481 277.027 117.275 277.335 117.275H292.519C292.827 117.275 293.032 117.481 293.032 117.788C293.032 118.096 292.827 118.301 292.519 118.301Z" fill="#FFE7C2"></path>
<path d="M292.519 122.712H277.335C277.027 122.712 276.822 122.507 276.822 122.2C276.822 121.892 277.027 121.687 277.335 121.687H292.519C292.827 121.687 293.032 121.892 293.032 122.2C293.032 122.507 292.827 122.712 292.519 122.712Z" fill="#FFE7C2"></path>
<path d="M292.519 127.125H277.335C277.027 127.125 276.822 126.919 276.822 126.612C276.822 126.304 277.027 126.099 277.335 126.099H292.519C292.827 126.099 293.032 126.304 293.032 126.612C293.032 126.919 292.827 127.125 292.519 127.125Z" fill="#FFE7C2"></path>
<path d="M441.079 88.0356C440.668 88.0356 440.258 87.933 439.95 87.6252C439.335 87.1122 439.232 86.3941 439.54 85.6759C443.233 77.2629 445.285 71.5175 445.285 70.0812L445.183 60.8474C445.183 55.102 449.389 50.28 455.135 49.767C455.442 49.767 479.758 48.4332 491.454 49.4592C496.071 49.8696 498.225 54.9994 497.61 63.4124C496.789 72.7487 492.685 83.6239 488.684 83.7265C488.581 83.7265 488.581 83.7265 488.479 83.7265L455.442 81.059C455.032 81.059 452.877 81.4694 442.002 87.933C441.694 88.0356 441.387 88.0356 441.079 88.0356ZM479.86 50.0748C468.37 50.0748 455.442 50.793 455.34 50.793C450.21 51.3059 446.311 55.615 446.311 60.8474L446.414 70.0812C446.414 72.2357 443.233 80.0331 440.566 86.0863C440.463 86.3941 440.566 86.7019 440.771 86.9071C440.976 87.1122 441.284 87.2148 441.592 87.0096C449.594 82.2902 454.314 79.9305 455.648 80.0331L488.684 82.7006H488.786C491.864 82.7006 495.968 72.7487 496.686 63.4124C496.994 59.7189 497.097 50.9981 491.557 50.4852C488.171 50.1774 484.067 50.0748 479.86 50.0748Z" fill="#FFE7C2"></path>
<path d="M481.399 74.2883C485.818 74.2883 489.401 70.7054 489.401 66.2858C489.401 61.8661 485.818 58.2832 481.399 58.2832C476.979 58.2832 473.396 61.8661 473.396 66.2858C473.396 70.7054 476.979 74.2883 481.399 74.2883Z" fill="#9E6B93"></path>
<path d="M420.35 251.267C422.333 251.267 423.941 249.659 423.941 247.676C423.941 245.693 422.333 244.085 420.35 244.085C418.367 244.085 416.759 245.693 416.759 247.676C416.759 249.659 418.367 251.267 420.35 251.267Z" fill="#FFE7C2"></path>
<path d="M420.354 258.039C414.608 258.039 409.991 253.422 409.991 247.677C409.991 241.931 414.608 237.314 420.354 237.314C426.099 237.314 430.716 241.931 430.716 247.677C430.716 253.422 426.099 258.039 420.354 258.039ZM420.354 238.443C415.224 238.443 411.017 242.65 411.017 247.779C411.017 252.909 415.224 257.116 420.354 257.116C425.484 257.116 429.69 252.909 429.69 247.779C429.69 242.65 425.484 238.443 420.354 238.443Z" fill="#FFE7C2"></path>
<path d="M470.318 63.7203H455.134C454.826 63.7203 454.621 63.5151 454.621 63.2073C454.621 62.8995 454.826 62.6943 455.134 62.6943H470.318C470.626 62.6943 470.831 62.8995 470.831 63.2073C470.831 63.5151 470.626 63.7203 470.318 63.7203Z" fill="#FFE7C2"></path>
<path d="M470.318 68.1314H455.134C454.826 68.1314 454.621 67.9262 454.621 67.6185C454.621 67.3107 454.826 67.1055 455.134 67.1055H470.318C470.626 67.1055 470.831 67.3107 470.831 67.6185C470.831 67.9262 470.626 68.1314 470.318 68.1314Z" fill="#FFE7C2"></path>
<path d="M391.523 111.325H337.352V50.5879H391.523V111.325ZM338.378 110.299H390.497V51.6139H338.378V110.299Z" fill="#FFE7C2"></path>
<path d="M398.396 48.125H330.375V57.2561H398.396V48.125Z" fill="#FFE7C2"></path>
<path d="M334.686 53.9722C335.423 53.9722 336.02 53.3751 336.02 52.6384C336.02 51.9018 335.423 51.3047 334.686 51.3047C333.95 51.3047 333.353 51.9018 333.353 52.6384C333.353 53.3751 333.95 53.9722 334.686 53.9722Z" fill="#AFE3E2"></path>
<path d="M340.942 53.9722C341.679 53.9722 342.276 53.3751 342.276 52.6384C342.276 51.9018 341.679 51.3047 340.942 51.3047C340.206 51.3047 339.608 51.9018 339.608 52.6384C339.608 53.3751 340.206 53.9722 340.942 53.9722Z" fill="#F6A7AB"></path>
<g opacity="0.9">
<path opacity="0.9" d="M399.218 81.7761H350.382C349.151 81.7761 348.125 80.7502 348.125 79.519V67.1048C348.125 65.8736 349.151 64.8477 350.382 64.8477H399.218C400.449 64.8477 401.475 65.8736 401.475 67.1048V79.519C401.475 80.7502 400.449 81.7761 399.218 81.7761Z" fill="#000000"></path>
</g>
<g opacity="0.9">
<path opacity="0.9" d="M399.218 103.322H350.382C349.151 103.322 348.125 102.296 348.125 101.065V88.6507C348.125 87.4195 349.151 86.3936 350.382 86.3936H399.218C400.449 86.3936 401.475 87.4195 401.475 88.6507V101.065C401.475 102.296 400.449 103.322 399.218 103.322Z" fill="#9E6B93"></path>
</g>
<path d="M314.064 177.704C310.165 177.704 307.088 176.268 305.754 175.447C302.471 173.601 300.008 170.625 298.572 167.855C297.238 167.753 295.904 167.547 294.879 167.24C287.286 165.085 283.695 156.57 282.567 153.081L283.593 152.773C284.721 156.159 288.005 164.367 295.186 166.316C295.905 166.521 296.93 166.727 298.059 166.829C297.546 165.803 297.238 164.777 297.033 163.854C296.623 162.007 296.828 160.571 297.546 159.647C298.572 158.314 300.727 157.801 302.163 158.519C303.086 159.032 303.804 160.058 304.215 161.392C304.625 163.136 304.317 164.88 303.394 166.008C302.471 167.137 301.137 167.65 299.598 167.753C301.034 170.318 303.291 172.882 306.164 174.421C307.806 175.345 312.32 177.499 317.655 176.063C323.195 174.524 327.607 169.907 329.043 163.751L330.069 163.956C328.53 170.42 323.913 175.447 317.963 176.986C316.629 177.499 315.295 177.704 314.064 177.704ZM300.624 159.237C299.803 159.237 298.88 159.545 298.367 160.263C297.854 160.981 297.751 162.212 298.059 163.649C298.264 164.675 298.675 165.701 299.188 166.829C300.521 166.829 301.855 166.521 302.676 165.495C303.394 164.572 303.599 163.136 303.291 161.699C303.086 160.673 302.471 159.853 301.855 159.442C301.445 159.34 301.034 159.237 300.624 159.237Z" fill="#FFE7C2"></path>
<path d="M408.553 136.461L407.938 135.641C414.299 131.024 424.661 122.919 428.97 115.942C427.123 115.634 425.379 114.813 424.456 113.274C423.532 111.53 423.635 108.658 425.482 107.119C427.226 105.58 430.099 105.477 431.432 106.811C432.971 108.35 432.048 111.325 431.535 112.864C431.33 113.582 431.022 114.403 430.612 115.121C432.253 115.224 433.792 115.121 434.818 115.121C444.052 114.608 455.338 109.273 460.365 103.015C462.417 100.552 463.237 97.9875 462.93 95.833C462.622 93.6784 460.98 91.6265 458.21 89.7798L458.826 88.959C461.904 91.0109 463.648 93.2681 464.058 95.7304C464.469 98.1927 463.443 100.963 461.288 103.733C455.953 110.299 444.667 115.737 434.921 116.25C433.792 116.352 431.945 116.455 430.099 116.25C425.687 123.329 415.017 131.742 408.553 136.461ZM428.765 106.811C427.842 106.811 426.816 107.119 426.097 107.734C424.661 108.965 424.558 111.223 425.379 112.659C426.097 113.993 427.739 114.608 429.483 114.916C429.893 114.095 430.304 113.274 430.509 112.454C430.919 111.12 431.74 108.555 430.612 107.426C430.201 107.016 429.483 106.811 428.765 106.811Z" fill="#FFE7C2"></path>
<path d="M461.906 159.545C459.854 159.545 457.905 159.135 456.161 158.314C454.314 157.493 452.467 156.057 450.928 154.518C445.901 157.083 438.001 158.519 432.461 159.237L432.358 158.211C440.361 157.083 446.414 155.544 450.21 153.697C448.056 151.132 446.825 148.259 447.748 146.208C448.569 144.361 451.236 143.232 453.083 143.848C455.135 144.669 455.956 147.644 455.751 149.388C455.545 151.132 454.109 152.671 451.852 153.902C453.186 155.339 454.827 156.57 456.571 157.288C462.419 159.955 470.422 157.698 477.398 151.543L478.117 152.261C472.884 157.083 467.036 159.545 461.906 159.545ZM451.852 144.771C450.621 144.771 449.082 145.592 448.671 146.72C447.953 148.259 449.082 150.927 451.134 153.287C453.288 152.056 454.519 150.722 454.622 149.388C454.827 147.952 454.109 145.489 452.57 144.976C452.467 144.874 452.16 144.771 451.852 144.771Z" fill="#FFE7C2"></path>
<path d="M273.946 78.3918L273.228 77.6736C278.05 72.8515 283.487 69.0555 289.541 66.1827C292.926 64.6438 296.517 63.31 300.108 62.4893L300.313 63.5152C296.722 64.336 293.234 65.5672 289.951 67.2087C284 69.9788 278.665 73.6723 273.946 78.3918Z" fill="#FFE7C2"></path>
<path d="M272.304 85.9836L271.586 85.2654C276.408 80.4433 281.846 76.6473 287.899 73.7745C291.285 72.2356 294.875 70.9018 298.466 70.0811L298.672 71.107C295.081 71.9278 291.592 73.159 288.309 74.8005C282.359 77.468 277.024 81.2641 272.304 85.9836Z" fill="#FFE7C2"></path>
<g opacity="0.4">
<path opacity="0.4" d="M455.956 560.596C455.135 560.596 454.519 560.186 454.519 559.57L451.852 358.686H460.162L457.495 559.57C457.495 560.186 456.776 560.596 455.956 560.596Z" fill="#FFE7C2"></path>
</g>
<g opacity="0.4">
<path opacity="0.4" d="M396.345 560.596C395.525 560.596 394.909 560.186 394.909 559.57L392.241 358.686H400.552L397.884 559.57C397.782 560.186 397.166 560.596 396.345 560.596Z" fill="#FFE7C2"></path>
</g>
<path d="M429.382 280.609L350.075 320.417L349.665 319.596C348.536 317.339 349.459 314.569 351.716 313.44L422.816 277.737C425.073 276.608 427.843 277.531 428.972 279.788L429.382 280.609Z" fill="#FFE7C2"></path>
<path d="M350.177 320.417L356.846 327.188L436.153 287.278L429.382 280.609L418.609 282.969L352.742 316.621L350.177 320.417Z" fill="#FFE7C2"></path>
<path d="M428.975 281.532L465.397 181.706C462.524 180.68 459.446 182.116 458.42 184.989L425.692 274.556C424.666 277.428 426.205 280.506 428.975 281.532Z" fill="#FFE7C2"></path>
<path d="M465.396 181.706L477.297 183.245L434.514 287.073L428.974 281.533L430.102 270.555L462.01 184.784L465.396 181.706Z" fill="#FFE7C2"></path>
<path fill-rule="evenodd" clip-rule="evenodd" d="M422.815 277.736C423.658 277.314 424.572 277.179 425.445 277.292C425.294 276.408 425.361 275.471 425.688 274.556L458.416 184.989C459.442 182.116 462.52 180.68 465.393 181.706L465.392 181.706L465.393 181.706L477.294 183.245L434.925 286.069L436.152 287.277L356.845 327.187L350.176 320.416L350.228 320.339L350.074 320.416L349.664 319.595C348.535 317.338 349.459 314.568 351.716 313.439L422.815 277.736Z" fill="white" fill-opacity="0.57"></path>
<path d="M448.772 346.785H359C353.973 346.785 349.766 342.681 349.766 337.551C349.766 332.421 353.87 328.317 359 328.317C359.616 328.317 360.026 328.728 360.026 329.343C360.026 329.959 359.616 330.369 359 330.369C355.101 330.369 351.818 333.55 351.818 337.551C351.818 341.45 354.999 344.733 359 344.733H448.772C449.388 344.733 449.798 345.143 449.798 345.759C449.798 346.374 449.285 346.785 448.772 346.785Z" fill="#9E6B93"></path>
<path d="M317.141 346.375H313.755V337.449L317.141 336.628V346.375Z" fill="#9E6B93"></path>
<path d="M452.876 561.109C451.748 561.109 450.927 560.494 450.927 559.57L448.157 358.173H457.596L454.826 559.57C454.928 560.494 454.005 561.109 452.876 561.109ZM449.285 359.301L451.953 559.57C451.953 559.776 452.363 560.083 452.876 560.083C453.389 560.083 453.8 559.776 453.8 559.57L456.467 359.301H449.285Z" fill="#FFE7C2"></path>
<path d="M393.266 561.109C392.137 561.109 391.316 560.494 391.316 559.57L388.546 358.173H397.985L395.215 559.57C395.215 560.494 394.292 561.109 393.266 561.109ZM389.572 359.301L392.24 559.57C392.24 559.776 392.65 560.083 393.163 560.083C393.676 560.083 394.087 559.776 394.087 559.57L396.754 359.301H389.572Z" fill="#FFE7C2"></path>
<path d="M466.009 360.43H252.916C250.351 360.43 248.401 358.378 248.401 355.916V354.171C248.401 351.607 250.453 349.657 252.916 349.657H465.907C468.472 349.657 470.421 351.709 470.421 354.171V355.916C470.524 358.481 468.472 360.43 466.009 360.43Z" fill="#FFE7C2"></path>
<path d="M436.15 287.277L356.842 327.085L356.432 326.264C355.304 324.007 356.227 321.237 358.484 320.108L429.584 284.405C431.841 283.276 434.611 284.199 435.739 286.456L436.15 287.277Z" fill="#FFE7C2"></path>
<path d="M436.154 287.279L478.116 183.656C475.346 182.528 472.165 183.861 471.037 186.631L433.178 280.2C432.05 283.073 433.384 286.15 436.154 287.279Z" fill="#FFE7C2"></path>
<path d="M326.068 346.887H321.554V336.216L326.068 334.985V346.887ZM322.682 345.861H325.145V336.319L322.682 336.935V345.861Z" fill="#FFE7C2"></path>
<path d="M403.425 346.272H399.629L391.524 313.031L396.038 310.671L403.425 346.272ZM400.45 345.246H402.194L395.32 312.21L392.755 313.544L400.45 345.246Z" fill="#9E6B93"></path>
<path d="M440.975 287.176L357.564 327.907C356.538 328.42 355.307 328.215 354.589 327.394L343.303 315.288C342.482 314.57 341.354 315.596 341.969 316.417L352.537 331.601C353.255 332.627 354.691 333.037 355.82 332.422L442.309 289.639C442.822 289.434 443.13 288.921 443.13 288.408C443.027 287.382 441.899 286.766 440.975 287.176Z" fill="#9E6B93"></path>
<path d="M378.183 302.977C377.875 302.464 377.773 301.951 378.901 301.233C379.927 300.618 380.44 300.925 380.748 301.438" fill="#FFE7C2"></path>
<path d="M359.816 310.774L371.922 304.311L377.052 308.722L364.433 315.391L359.816 310.774Z" fill="#FFE7C2"></path>
<path d="M379.516 304.31C379.208 303.797 379.106 303.284 380.234 302.566C381.26 301.951 381.773 302.258 382.081 302.771" fill="#FFE7C2"></path>
<path d="M380.85 305.542C380.542 305.029 380.439 304.516 381.568 303.798C382.594 303.182 383.107 303.49 383.414 304.003" fill="#FFE7C2"></path>
<path d="M382.183 306.876C381.875 306.363 381.772 305.85 382.901 305.132C383.927 304.516 384.44 304.824 384.747 305.337" fill="#FFE7C2"></path>
<path d="M383.724 300.205C383.416 299.692 383.313 299.179 384.442 298.461C385.468 297.845 385.981 298.153 386.288 298.666" fill="#FFE7C2"></path>
<path d="M385.057 301.539C384.749 301.026 384.647 300.513 385.775 299.795C386.801 299.179 387.314 299.487 387.622 300" fill="#FFE7C2"></path>
<path d="M386.39 302.77C386.082 302.257 385.979 301.744 387.108 301.026C388.134 300.411 388.647 300.718 388.955 301.231" fill="#FFE7C2"></path>
<path d="M387.722 304.103C387.414 303.59 387.312 303.077 388.44 302.359C389.466 301.744 389.979 302.051 390.287 302.564" fill="#FFE7C2"></path>
<path d="M389.364 297.435C389.056 296.922 388.954 296.409 390.082 295.691C391.108 295.076 391.621 295.383 391.929 295.896" fill="#FFE7C2"></path>
<path d="M390.7 298.769C390.392 298.256 390.29 297.743 391.418 297.025C392.444 296.41 392.957 296.717 393.265 297.23" fill="#FFE7C2"></path>
<path d="M391.93 300.001C391.623 299.488 391.52 298.975 392.649 298.257C393.674 297.641 394.187 297.949 394.495 298.462" fill="#FFE7C2"></path>
<path d="M393.263 301.334C392.955 300.821 392.853 300.308 393.981 299.59C395.007 298.974 395.52 299.282 395.828 299.795" fill="#FFE7C2"></path>
<path d="M394.907 294.667C394.599 294.154 394.496 293.641 395.625 292.923C396.651 292.307 397.164 292.615 397.472 293.128" fill="#FFE7C2"></path>
<path d="M396.242 296C395.934 295.487 395.831 294.974 396.96 294.256C397.986 293.64 398.499 293.948 398.807 294.461" fill="#FFE7C2"></path>
<path d="M397.575 297.232C397.267 296.719 397.164 296.206 398.293 295.488C399.319 294.872 399.832 295.18 400.14 295.693" fill="#FFE7C2"></path>
<path d="M398.904 298.565C398.596 298.052 398.494 297.539 399.622 296.821C400.648 296.205 401.161 296.513 401.469 297.026" fill="#FFE7C2"></path>
<path d="M400.443 291.896C400.135 291.383 400.032 290.87 401.161 290.152C402.187 289.536 402.7 289.844 403.007 290.357" fill="#FFE7C2"></path>
<path d="M401.78 293.229C401.472 292.716 401.369 292.203 402.498 291.485C403.524 290.87 404.037 291.177 404.345 291.69" fill="#FFE7C2"></path>
<path d="M403.113 294.461C402.805 293.948 402.703 293.435 403.831 292.717C404.857 292.101 405.37 292.409 405.678 292.922" fill="#FFE7C2"></path>
<path d="M404.442 295.795C404.134 295.282 404.031 294.769 405.16 294.051C406.186 293.435 406.699 293.743 407.007 294.256" fill="#FFE7C2"></path>
<path d="M406.088 289.126C405.78 288.613 405.678 288.1 406.806 287.382C407.832 286.766 408.345 287.074 408.653 287.587" fill="#FFE7C2"></path>
<path d="M407.319 290.46C407.011 289.947 406.909 289.434 408.037 288.716C409.063 288.1 409.576 288.408 409.884 288.921" fill="#FFE7C2"></path>
<path d="M408.654 291.691C408.346 291.178 408.243 290.665 409.372 289.947C410.398 289.331 410.911 289.639 411.219 290.152" fill="#FFE7C2"></path>
<path d="M409.99 293.025C409.682 292.512 409.58 291.999 410.708 291.281C411.734 290.665 412.247 290.973 412.555 291.486" fill="#FFE7C2"></path>
<path d="M331.401 336.114L262.148 346.887L261.841 344.63C261.43 342.167 263.174 339.808 265.637 339.397L325.861 330.061C328.323 329.651 330.683 331.395 331.094 333.857L331.401 336.114Z" fill="#FFE7C2"></path>
<path d="M228.188 463.026L117.178 446.918C114.306 446.918 111.946 444.764 111.946 442.199V419.114C111.946 412.343 117.999 406.803 125.489 406.803H224.7C239.371 406.803 251.17 417.575 251.17 430.81V442.199C251.067 444.764 231.061 463.026 228.188 463.026Z" fill="#000000"></path>
<path d="M130.825 238.339L151.242 427.631L103.329 431.324L99.2255 281.43L83.7334 248.907L112.871 233.825L130.825 238.339Z" fill="#000000"></path>
<path d="M56.5437 201.815C56.5437 201.815 88.5539 183.143 102.815 187.759C117.076 192.376 123.232 196.891 126.515 211.049L130.824 238.34L94.5045 250.754L60.1346 209.1L56.5437 201.815Z" fill="#9E6B93"></path>
<path d="M95.8383 431.118C99.737 396.133 97.9928 360.942 90.9136 326.572C83.4241 290.355 69.9839 255.165 50.7983 222.539C45.9762 214.331 50.7983 203.764 60.2372 202.122C60.3398 202.122 60.4424 202.122 60.545 202.02C66.2904 200.994 71.9332 203.764 74.8059 208.791C94.5045 244.187 107.534 282.866 113.382 322.673C118.41 356.941 118.204 392.234 112.562 427.117C111.023 436.761 94.8123 440.249 95.8383 431.118Z" fill="#000000"></path>
<path d="M94.5062 250.753L70.9089 262.347C65.1635 248.701 58.4947 235.364 50.9025 222.436C46.0805 214.229 50.9025 203.661 60.3414 202.02C60.444 202.02 60.5466 202.02 60.6492 202.02C66.292 200.994 72.0375 203.764 74.9102 208.791C82.3998 222.334 88.966 236.287 94.5062 250.753Z" fill="#9E6B93"></path>
<path d="M228.598 463.027H98.9153C96.2477 463.027 94.1958 460.872 94.1958 458.307V435.223C94.1958 428.451 99.736 422.911 106.507 422.911H209.309C222.544 422.911 233.317 433.684 233.317 446.919V458.307C233.42 460.872 231.265 463.027 228.598 463.027Z" fill="#000000"></path>
<path opacity="0.4" d="M113.215 422.911H209.311C222.546 422.911 233.319 433.684 233.319 446.919V458.307C233.421 460.872 231.267 463.026 228.599 463.026H98.917C96.2494 463.026 94.1975 460.872 94.1975 458.307V435.222C94.1975 432.817 94.8969 430.566 96.1025 428.664C99.6525 394.488 97.8273 360.139 90.9136 326.572C83.4241 290.355 69.9839 255.165 50.7983 222.539C45.9762 214.331 50.7983 203.764 60.2372 202.122C60.3398 202.122 60.4424 202.122 60.545 202.02C66.2904 200.994 71.9332 203.764 74.8059 208.791C94.5045 244.187 107.534 282.866 113.382 322.673C118.208 355.564 118.212 389.4 113.215 422.911Z" fill="white"></path>
<path d="M110.395 563.879C110.19 563.879 109.985 563.674 109.882 563.469C109.78 563.161 109.985 562.956 110.293 562.853C118.603 561.314 125.272 557.723 129.684 552.491C131.633 550.234 134.813 545.72 134.506 543.462C132.351 545.309 129.991 546.848 128.863 546.027C128.452 545.822 128.247 545.309 128.145 544.694C128.042 543.77 128.247 542.744 128.76 542.129C129.376 541.308 130.607 540.897 131.941 540.897C133.069 540.897 134.095 541.308 134.711 541.821C135.532 541.103 136.352 540.282 137.173 539.358C140.661 535.665 149.895 525.918 146.715 515.453C145.586 511.657 143.021 508.272 140.046 505.912C139.328 506.528 138.61 507.041 137.686 507.451C134.095 509.195 129.376 508.99 127.016 507.964C126.195 507.553 125.785 507.143 125.682 506.63C125.58 506.22 125.682 505.707 125.99 505.194C126.811 503.86 129.068 502.526 131.017 502.116C133.787 501.5 137.071 502.629 139.943 504.681C145.176 499.551 145.278 489.291 145.278 487.957C145.176 475.646 136.66 466.925 132.967 463.745C132.762 463.539 132.761 463.232 132.864 463.026C132.967 462.821 133.377 462.821 133.582 462.924C137.378 466.207 146.202 475.133 146.202 487.957C146.202 490.112 145.996 500.064 140.661 505.296C143.739 507.759 146.407 511.35 147.535 515.248C150.819 526.329 141.277 536.281 137.686 540.077C136.968 540.897 136.045 541.821 135.121 542.642C136.352 545.514 131.736 551.26 130.299 553.004C125.888 558.544 118.911 562.238 110.395 563.879ZM131.736 542.026C130.71 542.026 129.889 542.334 129.478 542.847C129.171 543.257 128.965 543.975 129.068 544.591C129.068 544.899 129.273 545.104 129.376 545.207C129.991 545.617 131.736 544.488 133.993 542.642C133.48 542.231 132.762 542.026 131.941 542.026C131.736 542.026 131.736 542.026 131.736 542.026ZM132.659 503.142C132.146 503.142 131.736 503.142 131.223 503.244C129.273 503.655 127.426 504.886 126.811 505.912C126.606 506.117 126.606 506.425 126.606 506.528C126.606 506.733 126.913 506.938 127.426 507.246C129.273 508.169 133.787 508.477 137.276 506.835C137.994 506.528 138.61 506.117 139.225 505.604C137.071 503.963 134.711 503.142 132.659 503.142Z" fill="#FFE7C2"></path>
<path d="M214.91 563.879C214.807 563.879 214.807 563.879 214.91 563.879C206.292 562.238 199.418 558.544 194.903 553.209C193.364 551.465 188.85 545.72 190.081 542.847C189.158 541.924 188.235 541 187.516 540.282C183.925 536.486 174.384 526.432 177.667 515.454C178.796 511.555 181.463 507.964 184.541 505.502C179.309 500.167 179.001 490.317 179.001 488.163C179.103 475.441 187.824 466.412 191.62 463.129C191.825 462.924 192.133 462.924 192.338 463.232C192.544 463.54 192.544 463.745 192.236 463.95C188.542 467.131 180.027 475.851 179.924 488.163C179.924 489.497 180.027 499.756 185.259 504.886C188.132 502.834 191.415 501.808 194.185 502.321C196.237 502.732 198.392 504.065 199.212 505.399C199.52 505.912 199.623 506.425 199.52 506.836C199.418 507.349 198.905 507.862 198.186 508.169C195.827 509.298 191.005 509.401 187.516 507.656C186.696 507.246 185.875 506.733 185.157 506.117C182.181 508.477 179.616 511.863 178.488 515.659C175.41 526.124 184.541 535.871 188.029 539.564C188.85 540.487 189.671 541.308 190.492 542.026C191.107 541.411 192.133 541.103 193.262 541.103C194.596 541.103 195.827 541.513 196.442 542.334C196.955 543.052 197.16 543.976 197.058 544.899C196.955 545.515 196.647 545.925 196.34 546.233C195.109 547.054 192.851 545.515 190.697 543.668C190.286 545.822 193.57 550.337 195.519 552.696C199.931 557.826 206.599 561.417 214.91 563.059C215.218 563.161 215.32 563.366 215.32 563.674C215.32 563.777 215.115 563.879 214.91 563.879ZM191.415 542.642C193.672 544.591 195.416 545.617 196.032 545.207C196.135 545.104 196.237 544.899 196.34 544.591C196.442 543.976 196.237 543.257 195.929 542.847C195.519 542.334 194.596 541.924 193.57 542.026C192.646 542.026 191.825 542.232 191.415 542.642ZM186.08 505.502C186.696 506.015 187.311 506.425 188.029 506.733C191.518 508.375 195.929 508.067 197.879 507.143C198.392 506.938 198.699 506.63 198.699 506.425C198.699 506.323 198.699 506.015 198.494 505.81C197.879 504.886 196.032 503.552 194.083 503.142C191.518 502.732 188.645 503.655 186.08 505.502Z" fill="#FFE7C2"></path>
<path d="M97.377 445.175C97.2744 445.175 97.0692 445.175 96.9666 445.072C96.7614 444.867 96.7614 444.559 96.9666 444.354L110.612 430.709C110.817 430.503 111.125 430.503 111.33 430.709C111.535 430.914 111.535 431.222 111.33 431.427L97.6848 445.072C97.6848 445.175 97.4796 445.175 97.377 445.175Z" fill="#FFE7C2"></path>
<path d="M193.614 466.002C193.511 466.002 193.306 466.002 193.203 465.899C192.998 465.694 192.998 465.386 193.203 465.181L206.849 451.536C207.054 451.331 207.362 451.331 207.567 451.536C207.772 451.741 207.772 452.049 207.567 452.254L193.921 465.797C193.819 465.899 193.716 466.002 193.614 466.002Z" fill="#FFE7C2"></path>
<path d="M184.584 466.002C184.482 466.002 184.277 466.002 184.174 465.899C183.969 465.694 183.969 465.386 184.174 465.181L197.819 451.536C198.024 451.331 198.332 451.331 198.537 451.536C198.743 451.741 198.743 452.049 198.537 452.254L184.892 465.899C184.892 465.899 184.789 466.002 184.584 466.002Z" fill="#FFE7C2"></path>
<path d="M166.73 466.002C166.627 466.002 166.422 466.002 166.32 465.899C166.114 465.694 166.114 465.386 166.32 465.181L179.965 451.536C180.17 451.331 180.478 451.331 180.683 451.536C180.888 451.741 180.888 452.049 180.683 452.254L167.038 465.899C166.935 465.899 166.833 466.002 166.73 466.002Z" fill="#FFE7C2"></path>
<path d="M157.705 466.002C157.602 466.002 157.397 466.002 157.295 465.899C157.089 465.694 157.089 465.386 157.295 465.181L170.94 451.536C171.145 451.331 171.453 451.331 171.658 451.536C171.863 451.741 171.863 452.049 171.658 452.254L158.013 465.899C158.013 465.899 157.807 466.002 157.705 466.002Z" fill="#FFE7C2"></path>
<path d="M148.776 466.002C148.673 466.002 148.468 466.002 148.365 465.899C148.16 465.694 148.16 465.386 148.365 465.181L162.011 451.536C162.216 451.331 162.524 451.331 162.729 451.536C162.934 451.741 162.934 452.049 162.729 452.254L149.083 465.899C148.981 465.899 148.878 466.002 148.776 466.002Z" fill="#FFE7C2"></path>
<path d="M139.85 466.002C139.748 466.002 139.543 466.002 139.44 465.899C139.235 465.694 139.235 465.386 139.44 465.181L153.085 451.536C153.291 451.331 153.598 451.331 153.804 451.536C154.009 451.741 154.009 452.049 153.804 452.254L140.158 465.899C140.056 465.899 139.953 466.002 139.85 466.002Z" fill="#FFE7C2"></path>
<path d="M130.821 466.002C130.719 466.002 130.513 466.002 130.411 465.899C130.206 465.694 130.206 465.386 130.411 465.181L144.056 451.536C144.261 451.331 144.569 451.331 144.774 451.536C144.979 451.741 144.979 452.049 144.774 452.254L131.129 465.899C131.129 465.899 130.924 466.002 130.821 466.002Z" fill="#FFE7C2"></path>
<path d="M121.896 466.002C121.793 466.002 121.588 466.002 121.486 465.899C121.28 465.694 121.28 465.386 121.486 465.181L135.131 451.536C135.336 451.331 135.644 451.331 135.849 451.536C136.054 451.741 136.054 452.049 135.849 452.254L122.204 465.899C122.101 465.899 121.999 466.002 121.896 466.002Z" fill="#FFE7C2"></path>
<path d="M112.867 466.002C112.764 466.002 112.559 466.002 112.456 465.899C112.251 465.694 112.251 465.386 112.456 465.181L126.102 451.536C126.307 451.331 126.615 451.331 126.82 451.536C127.025 451.741 127.025 452.049 126.82 452.254L113.175 465.899C113.175 465.899 113.072 466.002 112.867 466.002Z" fill="#FFE7C2"></path>
<path d="M103.942 466.002C103.839 466.002 103.634 466.002 103.531 465.899C103.326 465.694 103.326 465.386 103.531 465.181L117.177 451.536C117.382 451.331 117.69 451.331 117.895 451.536C118.1 451.741 118.1 452.049 117.895 452.254L104.25 465.899C104.25 465.899 104.044 466.002 103.942 466.002Z" fill="#FFE7C2"></path>
<path d="M98.8118 450.202C98.7092 450.202 98.5041 450.202 98.4015 450.099C98.1963 449.894 98.1963 449.587 98.4015 449.381L112.047 435.736C112.252 435.531 112.56 435.531 112.765 435.736C112.97 435.941 112.97 436.249 112.765 436.454L99.1196 450.099C99.017 450.202 98.9144 450.202 98.8118 450.202Z" fill="#FFE7C2"></path>
<path d="M97.377 458.513C97.2744 458.513 97.0692 458.513 96.9666 458.41C96.7614 458.205 96.7614 457.897 96.9666 457.692L110.612 444.046C110.817 443.841 111.125 443.841 111.33 444.046C111.535 444.252 111.535 444.559 111.33 444.765L97.6848 458.41C97.6848 458.41 97.4796 458.513 97.377 458.513Z" fill="#FFE7C2"></path>
<path d="M98.8118 463.54C98.7092 463.54 98.5041 463.54 98.4015 463.437C98.1963 463.232 98.1963 462.924 98.4015 462.719L112.047 449.074C112.252 448.869 112.56 448.869 112.765 449.074C112.97 449.279 112.97 449.587 112.765 449.792L99.1196 463.437C99.017 463.437 98.9144 463.54 98.8118 463.54Z" fill="#FFE7C2"></path>
<path d="M175.804 465.823C175.702 465.823 175.496 465.823 175.394 465.721C175.189 465.515 175.189 465.208 175.394 465.002L189.039 451.357C189.244 451.152 189.552 451.152 189.757 451.357C189.963 451.562 189.963 451.87 189.757 452.075L176.112 465.721C176.009 465.721 175.907 465.823 175.804 465.823Z" fill="#FFE7C2"></path>
<path d="M66.7045 264.913C66.4994 264.913 66.2942 264.81 66.2942 264.605C66.1916 264.4 66.2942 264.092 66.4993 263.887L97.9966 248.497C98.2018 248.395 98.5096 248.497 98.7148 248.702C98.8174 248.908 98.7148 249.215 98.5096 249.421L67.0123 264.81C66.8071 264.81 66.8071 264.913 66.7045 264.913Z" fill="#FFE7C2"></path>
<path d="M86.6049 232.491C86.3998 232.491 86.1946 232.389 86.092 232.184C82.5011 224.284 78.4998 216.486 74.2933 208.894C71.6258 204.072 66.0856 201.405 60.5453 202.431C60.4427 202.431 60.3402 202.431 60.2376 202.533C55.9285 203.251 52.4402 206.021 50.5934 209.92C48.7467 213.921 48.9519 218.333 51.209 222.129C51.3116 222.334 51.3116 222.642 51.0038 222.847C50.7986 222.95 50.4909 222.95 50.2857 222.642C47.9259 218.538 47.6181 213.716 49.6701 209.51C51.6194 205.201 55.4155 202.328 60.135 201.507C60.2376 201.507 60.3402 201.507 60.4428 201.507C66.3934 200.481 72.344 203.354 75.2167 208.484C79.4232 216.076 83.4244 223.873 87.0153 231.773C87.1179 232.081 87.0153 232.286 86.8101 232.491C86.8101 232.491 86.7075 232.491 86.6049 232.491Z" fill="#FFE7C2"></path>
<path d="M304.826 243.675C304.826 243.675 326.473 228.08 332.937 224.489C339.503 221.001 356.124 219.667 368.128 223.361C370.385 224.079 361.459 229.209 359.099 229.516C359.099 229.516 396.445 228.285 396.137 232.389C395.932 236.493 389.16 239.058 379.413 240.392C369.667 241.725 345.762 245.214 333.45 243.675C326.268 250.241 310.161 268.708 310.161 268.708L297.746 251.267L304.826 243.675Z" fill="#F8BCBF"></path>
<path d="M235.983 322.571C235.983 322.571 263.992 309.233 273.328 311.798C277.227 312.824 283.486 314.158 289.128 317.954C296.926 323.187 298.054 330.266 294.669 332.01C292.001 333.344 278.869 329.65 278.869 329.65C278.869 329.65 273.226 332.42 268.609 336.114C265.121 338.884 247.269 340.32 247.269 340.32C228.904 322.468 235.983 322.571 235.983 322.571Z" fill="#F8BCBF"></path>
<path d="M261.942 297.846C258.864 297.846 255.786 297.333 252.81 296.307L181.506 272.197C171.861 269.016 184.276 263.579 187.456 253.935C190.637 244.291 172.169 225.31 181.813 228.491L260.197 259.988L305.34 234.544C313.548 228.593 335.298 258.244 327.091 264.194L278.254 292.306C273.535 295.999 267.79 297.846 261.942 297.846Z" fill="#FFE7C2"></path>
<path d="M220.803 146.822C222.342 145.899 233.012 136.87 231.781 133.587C230.96 131.33 226.036 132.151 225.215 129.586C224.599 127.739 226.857 125.79 228.293 123.635C232.705 117.48 230.037 102.808 224.086 101.064C201.926 94.6004 185.51 122.096 185.51 122.096C187.562 118.095 187.562 114.094 185.51 112.145C182.843 109.58 177.405 111.837 176.687 112.145C167.043 116.146 165.196 129.176 161.913 128.663C159.861 128.252 160.476 123.328 157.399 122.096C154.628 120.968 149.909 123.225 148.575 126.611C146.523 131.843 153.5 137.383 151.653 140.256C150.73 141.692 147.652 142.411 139.136 139.948C134.725 158.313 142.932 175.652 145.292 182.116C147.241 187.758 150.012 195.453 156.065 196.582C160.476 197.403 166.324 194.632 167.966 190.323C170.326 184.27 162.836 179.448 163.452 169.291C163.657 164.879 165.914 164.572 167.145 162.52C181.201 161.391 211.057 152.978 220.803 146.822Z" fill="#FFE7C2"></path>
<path d="M155.96 233.209C155.96 233.209 166.938 197.403 167.348 184.373C167.348 184.373 152.472 188.99 153.805 179.756C155.139 170.42 167.348 172.677 167.348 172.677C166.835 168.162 167.861 163.751 170.426 159.442C170.426 159.442 192.074 158.518 217.415 148.464L222.648 186.014L216.492 187.245C216.492 187.245 211.567 212.587 208.9 213.51C206.232 214.434 190.227 214.741 190.227 214.741L188.893 253.728C188.791 253.728 160.679 248.393 155.96 233.209Z" fill="#F8BCBF"></path>
<path d="M158.938 218.539C152.577 226.644 89.0697 270.453 126.723 377.256H209.724C209.724 377.256 215.366 301.129 212.904 288.099C211.365 279.686 211.263 245.419 210.955 243.367C210.544 240.597 191.974 233.107 189.512 235.98L188.999 245.624C171.968 238.955 159.861 217.513 158.938 218.539Z" fill="#FFE7C2"></path>
<path d="M176.073 370.075C175.663 370.075 175.252 370.075 174.842 370.075C169.815 369.87 160.581 367.51 155.964 353.967C155.041 351.095 154.015 347.298 152.989 342.476C151.45 335.192 149.603 325.138 147.654 312.621C144.371 291.691 141.806 271.172 141.703 270.351C140.472 260.296 147.551 251.063 157.606 249.831C167.66 248.6 176.894 255.679 178.125 265.734C180.793 287.074 185.307 317.751 188.18 333.448C200.799 327.702 220.395 321.957 236.195 314.057C245.326 309.543 261.639 342.476 252.508 346.991C192.181 377.052 180.998 370.075 176.073 370.075Z" fill="#FFE7C2"></path>
<path d="M176.073 370.075C175.663 370.075 175.252 370.075 174.842 370.075C169.815 369.87 160.581 367.51 155.964 353.967C155.041 351.095 154.015 347.298 152.989 342.476C151.45 335.192 149.603 325.138 147.654 312.621C144.371 291.691 141.806 271.172 141.703 270.351C140.472 260.296 147.551 251.063 157.606 249.831C167.66 248.6 176.894 255.679 178.125 265.734C180.793 287.074 185.307 317.751 188.18 333.448C200.799 327.702 220.395 321.957 236.195 314.057C245.326 309.543 261.639 342.476 252.508 346.991C192.181 377.052 180.998 370.075 176.073 370.075Z" fill="black" fill-opacity="0.28"></path>
<path d="M188.176 341.655C187.868 341.655 187.663 341.347 187.663 341.039C188.689 333.037 177.916 266.246 174.12 256.91C172.376 252.601 164.168 252.293 157.602 252.703C150.318 253.216 143.444 254.858 143.341 254.858C143.033 254.96 142.828 254.755 142.725 254.447C142.623 254.14 142.828 253.934 143.136 253.832C144.264 253.524 171.35 247.266 175.146 256.499C178.634 265.117 189.92 331.805 188.689 341.142C188.689 341.552 188.381 341.655 188.176 341.655Z" fill="#060606"></path>
<path d="M181.817 338.166C181.612 338.166 181.51 338.063 181.407 337.961C181.304 337.756 181.304 337.448 181.612 337.243C181.715 337.14 197.207 327.906 228.602 316.313C228.909 316.21 229.115 316.313 229.217 316.621C229.32 316.928 229.217 317.134 228.909 317.236C197.617 328.83 182.33 338.063 182.125 338.166C182.023 338.063 181.92 338.166 181.817 338.166Z" fill="#060606"></path>
<path d="M174.429 372.639C164.272 372.639 155.551 357.147 148.575 326.676C143.342 303.797 140.982 280.507 140.982 280.2C140.982 279.892 141.188 279.687 141.393 279.687C141.701 279.687 141.906 279.892 141.906 280.097C142.008 281.02 151.14 372.639 174.634 371.613C203.464 370.28 247.478 345.451 247.991 345.143C248.196 345.041 248.504 345.041 248.709 345.349C248.914 345.656 248.812 345.861 248.504 346.067C248.094 346.272 203.772 371.306 174.737 372.639C174.737 372.639 174.532 372.639 174.429 372.639Z" fill="#060606"></path>
<path d="M203.67 296.923L202.644 294.666C201.926 293.127 200.797 290.665 199.771 290.562C199.258 290.562 198.745 291.178 198.13 292.306L197.514 293.64L197.206 292.204C196.693 289.844 196.796 287.484 196.796 285.227C196.796 284.611 196.796 283.996 196.796 283.38C196.796 283.072 197.001 282.867 197.309 282.867C197.617 282.867 197.822 283.072 197.822 283.38C197.822 283.996 197.822 284.611 197.822 285.227C197.822 287.074 197.822 288.92 198.027 290.665C198.643 289.946 199.156 289.536 199.874 289.639C201.208 289.639 202.234 291.28 203.054 292.922C203.26 291.896 203.67 291.178 204.183 290.767C205.106 290.049 206.337 290.459 207.466 290.767C209.005 291.28 209.928 291.485 210.544 290.357C210.647 290.152 210.954 290.049 211.262 290.152C211.467 290.254 211.57 290.562 211.467 290.87C210.441 292.819 208.595 292.204 207.158 291.793C206.235 291.485 205.312 291.178 204.696 291.588C204.183 291.998 203.875 293.024 203.773 294.768L203.67 296.923Z" fill="#000000"></path>
<path d="M137.287 338.269C137.082 338.269 136.774 338.064 136.774 337.859C136.466 336.012 135.235 334.062 134.106 332.318C133.593 331.498 133.081 330.779 132.67 330.061C132.568 329.856 132.67 329.548 132.875 329.343C133.081 329.24 133.388 329.343 133.593 329.548C134.004 330.266 134.414 330.985 134.927 331.703C136.158 333.549 137.492 335.601 137.8 337.653C137.903 337.961 137.697 338.269 137.287 338.269C137.39 338.269 137.39 338.269 137.287 338.269Z" fill="#9E6B93"></path>
<path d="M143.651 335.089C143.446 335.089 143.138 334.884 143.138 334.678C142.83 331.908 141.291 329.138 138.829 326.676C138.624 326.471 138.624 326.163 138.829 325.958C139.034 325.752 139.342 325.752 139.547 325.958C142.112 328.523 143.753 331.6 144.164 334.576C144.266 334.781 144.061 335.089 143.651 335.089C143.753 335.089 143.753 335.089 143.651 335.089Z" fill="#9E6B93"></path>
<path d="M207.778 196.788C207.778 196.788 205.213 204.893 199.878 204.483C196.082 204.175 195.159 197.711 194.954 197.506L207.778 196.788Z" fill="white"></path>
<path d="M197.208 179.038C198.342 179.038 199.26 178.12 199.26 176.987C199.26 175.853 198.342 174.935 197.208 174.935C196.075 174.935 195.156 175.853 195.156 176.987C195.156 178.12 196.075 179.038 197.208 179.038Z" fill="#464646"></path>
<path d="M218.755 173.498C219.888 173.498 220.807 172.58 220.807 171.446C220.807 170.313 219.888 169.395 218.755 169.395C217.622 169.395 216.703 170.313 216.703 171.446C216.703 172.58 217.622 173.498 218.755 173.498Z" fill="#464646"></path>
<path d="M189.614 174.524C189.306 174.524 188.998 174.422 188.793 174.114C188.383 173.703 188.485 172.985 188.896 172.677L199.463 163.751C199.873 163.341 200.592 163.444 200.899 163.854C201.31 164.264 201.207 164.983 200.797 165.29L190.229 174.216C190.127 174.422 189.922 174.524 189.614 174.524Z" fill="#464646"></path>
<path d="M226.549 169.395C226.447 169.395 226.344 169.395 226.241 169.395L214.853 166.112C214.34 165.906 214.032 165.393 214.135 164.88C214.34 164.367 214.853 164.06 215.366 164.162L226.754 167.445C227.267 167.651 227.575 168.164 227.472 168.676C227.37 169.087 226.96 169.395 226.549 169.395Z" fill="#464646"></path>
<path d="M187.664 170.01C187.151 170.01 186.638 169.6 186.638 169.087C186.638 168.471 187.049 168.061 187.562 167.958L199.155 167.24C199.668 167.24 200.181 167.651 200.284 168.164C200.284 168.779 199.873 169.19 199.36 169.292L187.664 170.01C187.767 170.01 187.767 170.01 187.664 170.01Z" fill="#464646"></path>
<path d="M209.52 189.606C209.315 189.606 209.11 189.401 209.007 189.195C208.904 188.888 209.11 188.682 209.417 188.58L220.806 186.22C221.113 186.117 221.319 186.323 221.421 186.63C221.524 186.938 221.319 187.143 221.011 187.246L209.622 189.606C209.52 189.606 209.52 189.606 209.52 189.606Z" fill="#464646"></path>
<path d="M160.992 180.885C160.89 180.885 160.787 180.885 160.684 180.782C160.479 180.577 160.377 180.269 160.582 180.064C160.684 179.961 162.223 177.91 165.814 178.628C166.122 178.73 166.225 178.936 166.225 179.243C166.122 179.551 165.917 179.654 165.609 179.654C162.736 179.038 161.505 180.577 161.505 180.68C161.3 180.885 161.095 180.885 160.992 180.885Z" fill="#464646"></path>
<path d="M164.583 182.63C164.275 182.63 164.07 182.322 164.07 182.014C164.172 180.886 162.018 178.834 160.581 177.808C160.376 177.602 160.274 177.295 160.479 177.089C160.684 176.884 160.992 176.782 161.197 176.987C161.607 177.295 165.301 180.065 165.096 182.117C165.096 182.424 164.89 182.63 164.583 182.63Z" fill="#464646"></path>
<path d="M178.532 155.646L174.531 176.576C174.531 176.576 165.092 172.78 160.988 172.472C154.319 167.958 167.144 152.568 167.144 152.568L178.532 155.646Z" fill="#FFE7C2"></path>
<path d="M209.927 136.975L209.004 136.564C209.722 135.025 211.261 134.204 212.595 133.486C213.005 133.281 213.518 132.973 213.928 132.768C219.366 129.177 226.445 124.15 232.396 117.789C236.705 113.275 240.398 108.453 239.065 100.245C238.859 99.1163 238.346 98.5007 237.32 98.1929C232.601 96.8592 220.495 104.144 217.109 108.042L216.288 107.427C219.879 103.22 232.191 95.7306 237.526 97.2696C238.962 97.68 239.783 98.7059 240.091 100.142C241.527 108.76 237.628 113.788 233.217 118.507C227.163 124.971 220.084 129.998 214.544 133.691C214.134 133.999 213.621 134.204 213.21 134.512C211.876 135.025 210.543 135.743 209.927 136.975Z" fill="#9E6B93"></path>
<path d="M293.439 320.622C293.439 320.622 293.337 320.622 293.439 320.622C292.413 320.315 290.874 319.802 289.027 319.186C285.129 317.75 279.691 315.8 277.126 315.8C276.921 315.8 276.716 315.595 276.716 315.39C276.716 315.185 276.921 314.979 277.126 314.979C279.896 314.979 285.129 316.826 289.335 318.365C291.079 318.981 292.618 319.596 293.542 319.802C293.747 319.904 293.849 320.109 293.849 320.315C293.747 320.52 293.644 320.622 293.439 320.622Z" fill="#FFE7C2"></path>
<path d="M297.954 327.496C297.851 327.496 297.851 327.496 297.954 327.496C296.928 327.189 295.594 326.676 294.055 326.06C290.464 324.624 285.437 322.572 281.641 322.572C281.436 322.572 281.23 322.367 281.23 322.161C281.23 321.956 281.436 321.751 281.641 321.751C285.642 321.751 290.669 323.803 294.363 325.239C295.902 325.855 297.133 326.368 298.056 326.573C298.262 326.676 298.364 326.881 298.364 327.086C298.262 327.394 298.056 327.496 297.954 327.496Z" fill="#FFE7C2"></path>
<path d="M216.391 379.307C216.391 379.307 306.471 373.562 311.293 384.642C316.115 395.723 316.144 504.803 316.144 504.803L290.062 512.169L279.488 402.597L216.391 379.307Z" fill="#9E6B93"></path>
<path d="M216.391 379.307C216.391 379.307 306.471 373.562 311.293 384.642C316.115 395.723 316.144 504.803 316.144 504.803L290.062 512.169L279.488 402.597L216.391 379.307Z" fill="white" fill-opacity="0.43"></path>
<path d="M316.114 503.962C316.114 503.962 316.114 508.271 316.114 510.015C316.114 514.017 316.114 516.274 316.114 516.274L289.542 513.677L289.029 503.654L316.114 503.962Z" fill="#F9C5C8"></path>
<path d="M316.116 512.067V528.688L345.15 541.307C347.613 542.333 346.792 545.924 344.227 545.924L291.492 545.617L289.543 512.273L316.116 512.067Z" fill="#F2F1F8"></path>
<path d="M356.435 558.133H273.126C271.382 558.133 270.048 556.8 270.048 555.055C270.048 553.311 271.382 551.978 273.126 551.978H356.435C358.179 551.978 359.513 553.311 359.513 555.055C359.513 556.8 358.076 558.133 356.435 558.133Z" fill="#FFE7C2"></path>
<path d="M304.829 553.004L322.988 530.33C322.988 530.33 348.33 539.974 356.024 545.925C359.923 549.003 357.563 555.261 352.639 555.056L304.829 553.004Z" fill="#FFE7C2"></path><path fill-rule="evenodd" clip-rule="evenodd" d="M357.461 552.142C358.676 552.55 359.513 553.674 359.513 555.056C359.513 556.8 358.076 558.133 356.435 558.133H273.126C271.382 558.133 270.048 556.8 270.048 555.056C270.048 553.311 271.382 551.978 273.126 551.978H305.649L322.987 530.33C322.987 530.33 348.328 539.974 356.023 545.925C358.117 547.578 358.405 550.148 357.461 552.142Z" fill="white" fill-opacity="0.19"></path>
<path d="M126.722 377.255V398.492C126.722 410.804 136.777 420.859 149.089 420.859H244.811C249.941 420.859 254.045 424.962 254.045 430.092V552.388C254.045 555.773 256.713 558.441 260.098 558.441H328.017C330.582 558.441 340.329 555.158 338.277 553.619L290.364 528.38L288.107 408.034C287.902 394.696 277.642 383.718 264.407 382.487L209.723 377.357H126.722V377.255Z" fill="#9E6B93"></path>
<path d="M290.366 512.067H254.047V518.018H290.366V512.067Z" fill="#F8B8BB"></path>
<path d="M254.047 518.019V552.389C254.047 555.774 256.714 558.442 260.1 558.442H328.019C330.584 558.442 340.331 555.159 338.279 553.62L290.366 528.381V518.019H254.047Z" fill="white"></path>
<path d="M290.365 512.581H254.045C253.738 512.581 253.532 512.375 253.532 512.068C253.532 511.76 253.738 511.555 254.045 511.555H290.365C290.673 511.555 290.878 511.76 290.878 512.068C290.878 512.375 290.673 512.581 290.365 512.581Z" fill="#FFE7C2"></path>
<path d="M290.365 519.045H254.045C253.738 519.045 253.532 518.839 253.532 518.532C253.532 518.224 253.738 518.019 254.045 518.019H290.365C290.673 518.019 290.878 518.224 290.878 518.532C290.878 518.839 290.673 519.045 290.365 519.045Z" fill="#FFE7C2"></path>
<path d="M316.219 504.27H290.365C290.057 504.27 289.852 504.065 289.852 503.757C289.852 503.449 290.057 503.244 290.365 503.244H316.116C316.424 503.244 316.629 503.449 316.629 503.757C316.629 504.065 316.424 504.27 316.219 504.27Z" fill="#FFE7C2"></path>
<path d="M316.219 512.581H290.365C290.057 512.581 289.852 512.375 289.852 512.068C289.852 511.76 290.057 511.555 290.365 511.555H316.116C316.424 511.555 316.629 511.76 316.629 512.068C316.629 512.375 316.424 512.581 316.219 512.581Z" fill="#FFE7C2"></path>
<path d="M338.586 563.673H255.277C253.533 563.673 252.199 562.34 252.199 560.595C252.199 558.851 253.533 557.518 255.277 557.518H338.586C340.33 557.518 341.664 558.851 341.664 560.595C341.664 562.34 340.228 563.673 338.586 563.673Z" fill="#FFE7C2"></path>
<path d="M287.083 558.543L305.242 535.869C305.242 535.869 330.584 545.513 338.278 551.464C342.177 554.542 339.817 560.8 334.893 560.595L287.083 558.543Z" fill="#FFE7C2"></path>
<path d="M165.607 403.212C164.991 403.212 164.376 403.109 163.76 403.006C159.348 402.083 159.554 396.645 159.656 392.644C159.656 392.029 159.656 391.413 159.656 390.9C159.656 390.592 159.861 390.387 160.169 390.387C160.477 390.387 160.682 390.592 160.682 390.9C160.682 391.413 160.682 392.029 160.682 392.644C160.58 396.44 160.477 401.262 163.965 401.98C166.12 402.493 168.274 401.98 170.326 400.544C175.661 396.953 178.739 388.848 178.944 387.412C178.944 387.104 179.252 386.899 179.56 387.001C179.868 387.001 180.073 387.309 179.97 387.617C179.56 389.771 176.174 397.877 170.942 401.467C169.198 402.699 167.454 403.212 165.607 403.212Z" fill="#FFE7C2"></path>
<path d="M269.741 491.959C269.433 491.959 269.228 491.754 269.228 491.446V419.32C269.228 411.42 262.867 405.059 254.967 405.059L177.507 402.802C177.199 402.802 176.994 402.597 176.994 402.289C176.994 401.982 177.301 401.776 177.507 401.776L254.967 404.033C263.38 404.033 270.254 410.907 270.254 419.32V491.446C270.254 491.651 270.049 491.959 269.741 491.959Z" fill="#FFE7C2"></path>
<path d="M262.354 536.178C262.149 536.178 261.944 536.075 261.841 535.87C261.739 535.562 261.841 535.357 262.149 535.255C262.97 534.947 264.612 534.434 265.945 534.844C266.253 534.947 266.356 535.255 266.253 535.46C266.151 535.768 265.843 535.87 265.638 535.768C264.919 535.562 263.791 535.665 262.56 536.178C262.457 536.178 262.354 536.178 262.354 536.178Z" fill="#FFE7C2"></path>
<path d="M263.688 539.974C263.483 539.974 263.278 539.871 263.175 539.666C263.073 539.461 263.175 539.153 263.38 538.948L263.688 538.845C264.509 538.435 265.125 538.127 266.151 538.23C266.458 538.23 266.664 538.435 266.664 538.743C266.664 539.051 266.356 539.256 266.151 539.256C265.33 539.256 264.817 539.461 264.099 539.769L263.791 539.871C263.893 539.974 263.791 539.974 263.688 539.974Z" fill="#FFE7C2"></path>
<path d="M285.232 530.124C285.026 530.124 284.821 530.021 284.719 529.816C284.616 529.508 284.719 529.303 285.026 529.098C285.232 528.995 285.437 528.893 285.642 528.79C286.052 528.585 286.463 528.38 287.078 528.175C287.489 528.072 287.899 528.072 288.31 528.072C288.925 528.072 289.438 528.072 289.848 527.764C290.054 527.559 290.361 527.662 290.567 527.867C290.772 528.072 290.669 528.38 290.464 528.585C289.746 529.098 288.925 529.098 288.31 529.098C288.002 529.098 287.591 529.098 287.284 529.201C286.873 529.303 286.565 529.508 286.155 529.714C285.95 529.816 285.745 529.919 285.437 530.021C285.334 530.124 285.232 530.124 285.232 530.124Z" fill="#FFE7C2"></path>
<path d="M306.987 527.354C306.781 527.354 306.576 527.251 306.576 527.046C306.474 526.841 306.576 526.533 306.781 526.328C306.987 526.226 307.192 526.123 307.397 525.918C307.91 525.507 308.525 525.097 309.244 525.2C309.551 525.302 309.654 525.507 309.654 525.815C309.551 526.123 309.346 526.226 309.038 526.226C308.833 526.123 308.423 526.431 308.013 526.738C307.807 526.944 307.5 527.149 307.294 527.251C307.192 527.354 307.089 527.354 306.987 527.354Z" fill="#FFE7C2"></path>
<path d="M307.597 529.612C307.495 529.612 307.392 529.612 307.29 529.509C307.084 529.304 306.982 528.996 307.187 528.791C307.597 528.175 308.521 527.457 309.239 527.149C309.547 527.047 309.752 527.252 309.855 527.457C309.957 527.765 309.752 527.97 309.547 528.073C309.034 528.278 308.316 528.894 308.008 529.304C308.008 529.509 307.803 529.612 307.597 529.612Z" fill="#FFE7C2"></path>
<path d="M212.182 282.251C212.182 282.251 211.362 264.809 207.976 259.987C207.976 259.987 224.904 283.585 224.904 286.355L212.182 282.251Z" fill="black" fill-opacity="0.81"></path>
<path d="M347.714 276.198C347.304 276.198 346.893 276.095 346.483 275.992C344.226 275.274 342.789 272.299 342.892 269.939C342.892 267.066 345.046 265.014 346.072 264.091C349.15 261.218 353.87 259.166 358.794 258.756C359.205 253.011 359.205 244.085 359.307 234.235C359.41 215.871 359.513 195.146 361.77 185.604L362.796 185.81C360.539 195.146 360.436 215.871 360.333 234.235C360.231 243.982 360.231 252.805 359.82 258.653C362.796 258.551 365.771 259.166 368.541 260.603C368.849 260.808 369.259 261.013 369.567 261.218C371.209 258.243 373.466 256.191 374.492 255.165C384.546 245.726 401.68 247.06 406.707 247.676L406.605 248.702C401.68 248.086 384.957 246.855 375.312 255.883C374.286 256.807 372.132 258.859 370.593 261.731C373.774 263.886 376.441 267.169 377.262 269.837C377.57 270.965 377.57 271.888 377.159 272.504C376.749 273.222 375.825 273.838 374.594 274.146C372.85 274.453 371.003 274.146 369.875 273.222C367.823 271.683 367.926 268.913 367.926 267.579C367.926 265.527 368.438 263.783 369.259 262.142C368.951 261.937 368.541 261.731 368.233 261.526C365.668 260.192 362.796 259.577 359.923 259.679C359.718 262.039 359.513 263.783 359.102 264.809C357.05 270.452 351.818 276.198 347.714 276.198ZM358.692 259.782C354.075 260.09 349.663 262.039 346.791 264.809C345.765 265.733 343.918 267.477 343.918 269.939C343.918 271.888 345.046 274.453 346.791 274.966C350.074 275.992 355.922 270.555 357.974 264.501C358.281 263.681 358.589 262.039 358.692 259.782ZM369.977 262.86C369.259 264.296 368.849 265.938 368.849 267.785C368.849 268.913 368.849 271.375 370.388 272.607C371.311 273.325 372.85 273.633 374.286 273.325C375.21 273.12 375.825 272.709 376.133 272.196C376.338 271.786 376.338 271.068 376.133 270.247C375.518 268.195 373.158 265.014 369.977 262.86Z" fill="#FFE7C2"></path>
<path d="M363.513 201.097C355.202 201.097 348.534 194.326 348.534 186.118C348.534 177.91 355.305 171.139 363.513 171.139C371.721 171.139 378.492 177.91 378.492 186.118C378.492 194.326 371.721 201.097 363.513 201.097ZM363.513 172.062C355.818 172.062 349.56 178.32 349.56 186.015C349.56 193.71 355.818 199.968 363.513 199.968C371.208 199.968 377.466 193.71 377.466 186.015C377.466 178.32 371.208 172.062 363.513 172.062Z" fill="#FFE7C2"></path>
<path d="M362.18 187.554C363.427 187.554 364.438 186.544 364.438 185.297C364.438 184.051 363.427 183.04 362.18 183.04C360.934 183.04 359.923 184.051 359.923 185.297C359.923 186.544 360.934 187.554 362.18 187.554Z" fill="#FFE7C2"></path>
<path d="M539.682 127.245C540.479 122.553 538.543 118.311 535.359 117.77C532.175 117.229 528.947 120.595 528.151 125.288C527.354 129.98 529.289 134.222 532.474 134.763C535.658 135.304 538.885 131.938 539.682 127.245Z" fill="#000000"></path>
<path d="M486.324 153.287C486.017 153.287 485.914 153.184 485.914 153.082C484.478 151.44 498.841 124.047 498.944 123.739C500.483 121.79 502.637 120.353 504.997 119.738L537.11 111.222C540.495 110.299 544.086 111.017 546.856 113.172C549.627 115.326 551.268 118.507 551.268 122.098V129.792C551.268 135.948 546.446 140.873 540.29 140.975L508.383 141.796C491.454 151.748 487.35 153.287 486.324 153.287ZM539.88 111.941C539.059 111.941 538.136 112.043 537.212 112.248L505.1 120.764C502.945 121.379 500.996 122.611 499.662 124.355C498.123 126.304 487.35 148.773 486.632 152.261C488.787 151.748 498.841 146.208 507.664 140.873L507.767 140.77H507.87L539.982 139.949C545.523 139.847 549.934 135.333 549.934 129.792V122.098C549.934 118.917 548.498 115.942 545.933 113.992C544.292 112.659 542.137 111.941 539.88 111.941Z" fill="#FFE7C2"></path>
<path d="M521.408 125.176L508.378 127.126C507.66 127.228 507.045 126.715 507.045 125.997C507.045 125.382 507.455 124.971 508.071 124.869L521.1 122.919C521.819 122.817 522.434 123.33 522.434 124.048C522.332 124.561 521.921 125.074 521.408 125.176Z" fill="#FFE7C2"></path>
<path d="M521.408 131.947L508.378 133.896C507.66 133.999 507.045 133.486 507.045 132.768C507.045 132.152 507.455 131.742 508.071 131.639L521.1 129.69C521.819 129.587 522.434 130.1 522.434 130.818C522.332 131.331 521.921 131.844 521.408 131.947Z" fill="#FFE7C2"></path>
</svg>